<svg width="60" height="60" viewBox="0 0 60 60" fill="none" xmlns="http://www.w3.org/2000/svg">
<rect x="3.05176e-05" width="60" height="60" rx="11" fill="#E1D8FF"/>
<path d="M35.2983 18.069C34.9082 19.519 33.6532 20.6383 32.5085 21.5201C32.1439 21.8 31.7369 22.1646 31.3129 22.3427C30.838 22.5462 30.3377 22.0628 29.9731 21.8C28.9132 21.0283 27.8447 20.121 27.1833 18.9678C26.5643 17.8739 26.5474 16.5002 27.5564 15.6184C28.0737 15.169 28.769 14.94 29.4474 15.0163C29.8035 15.0587 30.1512 15.1774 30.4564 15.364C30.6091 15.4573 30.7448 15.5675 30.8719 15.6862C30.9228 15.7286 30.9822 15.8304 31.0415 15.9067C31.0924 15.8388 31.1433 15.754 31.1857 15.7116C31.2959 15.6014 31.4231 15.4997 31.5588 15.4064C31.8132 15.2368 32.11 15.1096 32.4067 15.0502C32.9918 14.9315 33.6024 15.0248 34.1196 15.3131C34.603 15.5845 34.9845 16.0254 35.188 16.5426C35.3916 17.0429 35.3746 17.5347 35.2813 18.0605L35.2983 18.069Z" fill="url(#paint0_linear_131_5311)"/>
<path d="M44.1171 28.5244V27.0574C44.1171 26.0992 43.3369 25.3191 42.3787 25.3191H19.7383C18.7801 25.3191 18 26.0992 18 27.0574V28.5583C21.4681 30.8393 27.7006 34.9434 30.0749 36.5121C30.66 36.8937 31.4062 36.8937 31.9913 36.5121C34.374 34.9434 40.6404 30.8138 44.1255 28.5159L44.1171 28.5244Z" fill="#75519E"/>
<path d="M31.6436 39.6578C31.296 39.8867 30.7533 39.8867 30.4141 39.6578C26.2761 36.9274 22.138 34.2054 18 31.475V43.2616C18 44.2198 18.7801 44.9999 19.7383 44.9999H42.3787C43.3369 44.9999 44.1171 44.2198 44.1171 43.2616V31.4326C39.9621 34.1715 35.7986 36.9104 31.6436 39.6493V39.6578Z" fill="#75519E"/>
<defs>
<linearGradient id="paint0_linear_131_5311" x1="31.0585" y1="22.3935" x2="31.0585" y2="15.0078" gradientUnits="userSpaceOnUse">
<stop stop-color="#FEC839"/>
<stop offset="0.08" stop-color="#F9B639"/>
<stop offset="0.18" stop-color="#F5A539"/>
<stop offset="0.31" stop-color="#F39939"/>
<stop offset="0.49" stop-color="#F19239"/>
<stop offset="1" stop-color="#F19139"/>
</linearGradient>
</defs>
</svg>
