<svg width="24" height="24" viewBox="0 0 24 24" fill="none" xmlns="http://www.w3.org/2000/svg">
<path d="M15.3856 17.4015H17.1088C17.9299 17.4015 18.5986 18.0746 18.5986 18.8913C18.5986 19.708 17.9255 20.3811 17.1088 20.3811H15.978L15.0311 21.0138C14.9324 21.0766 14.8023 21.0093 14.8023 20.8926V20.2644C14.2683 20.0355 13.8914 19.506 13.8914 18.8913C13.8914 18.0701 14.5645 17.4015 15.3811 17.4015H15.3856Z" fill="url(#paint0_linear_101_786)"/>
<path d="M18.1858 17.0468C17.6788 16.7506 17.1358 16.7551 16.5704 16.7551H15.3813C15.1165 16.7596 14.8607 16.8135 14.6184 16.9122C14.4524 16.5846 14.3582 16.2211 14.3582 15.8307C14.3582 14.498 15.4486 13.4076 16.7813 13.4076H19.5769C20.9096 13.4076 22.0001 14.498 22.0001 15.8307C22.0001 16.8314 21.3853 17.693 20.5192 18.0609V19.0841C20.5192 19.2725 20.3083 19.3847 20.1513 19.2815L19.2179 18.6578C19.1416 18.0026 18.7782 17.4013 18.1814 17.0513L18.1858 17.0468Z" fill="#75519E"/>
<path d="M16.0633 5.53702H15.5293V4.0921C15.5293 2.63821 13.2677 2.63372 13.2677 4.0921V5.53702H7.68095V4.0921C7.68095 2.63821 5.41934 2.63372 5.41934 4.0921V5.53702H4.88535C3.29235 5.53702 2 6.82937 2 8.42685V17.0605C2 18.6579 3.29235 19.9503 4.88983 19.9503H12.967C12.8234 19.6227 12.7426 19.2682 12.7426 18.8958C12.7426 18.2047 13.0164 17.5765 13.4516 17.1053C13.2946 16.697 13.2093 16.2707 13.2093 15.8264C13.2093 13.8565 14.8113 12.25 16.7857 12.25H18.9531V8.42685C18.9531 6.82937 17.6607 5.53702 16.0633 5.53702ZM7.04823 16.4771C7.04823 16.6701 6.89118 16.8316 6.69374 16.8316H4.49046C4.29751 16.8316 4.13596 16.6745 4.13596 16.4771V14.2738C4.13596 14.0809 4.29302 13.9193 4.49046 13.9193H6.69374C6.89118 13.9193 7.04823 14.0764 7.04823 14.2738V16.4771ZM7.04823 11.209C7.04823 11.4019 6.89118 11.5635 6.69374 11.5635H4.49046C4.29751 11.5635 4.13596 11.4064 4.13596 11.209V9.00572C4.13596 8.81276 4.29302 8.65122 4.49046 8.65122H6.69374C6.89118 8.65122 7.04823 8.80827 7.04823 9.00572V11.209ZM11.9304 16.4771C11.9304 16.6701 11.7734 16.8316 11.5759 16.8316H9.37267C9.17971 16.8316 9.01817 16.6745 9.01817 16.4771V14.2738C9.01817 14.0809 9.17522 13.9193 9.37267 13.9193H11.5759C11.7689 13.9193 11.9304 14.0764 11.9304 14.2738V16.4771ZM11.9304 11.209C11.9304 11.4019 11.7734 11.5635 11.5759 11.5635H9.37267C9.17971 11.5635 9.01817 11.4064 9.01817 11.209V9.00572C9.01817 8.81276 9.17522 8.65122 9.37267 8.65122H11.5759C11.7689 8.65122 11.9304 8.80827 11.9304 9.00572V11.209ZM16.8126 11.209C16.8126 11.4019 16.6556 11.5635 16.4581 11.5635H14.2549C14.0619 11.5635 13.9004 11.4064 13.9004 11.209V9.00572C13.9004 8.81276 14.0574 8.65122 14.2549 8.65122H16.4581C16.6511 8.65122 16.8126 8.80827 16.8126 9.00572V11.209Z" fill="url(#paint1_linear_101_786)"/>
<defs>
<linearGradient id="paint0_linear_101_786" x1="13.8914" y1="19.2233" x2="18.5986" y2="19.2233" gradientUnits="userSpaceOnUse">
<stop stop-color="#FFCC39"/>
<stop offset="0.39" stop-color="#F7AB39"/>
<stop offset="1" stop-color="#F19139"/>
</linearGradient>
<linearGradient id="paint1_linear_101_786" x1="2" y1="11.4737" x2="18.9531" y2="11.4737" gradientUnits="userSpaceOnUse">
<stop stop-color="#41D5E7"/>
<stop offset="0.18" stop-color="#2ECDE4"/>
<stop offset="0.49" stop-color="#16C3E0"/>
<stop offset="0.77" stop-color="#07BDDD"/>
<stop offset="1" stop-color="#02BBDD"/>
</linearGradient>
</defs>
</svg>
