<svg width="24" height="24" viewBox="0 0 24 24" fill="none" xmlns="http://www.w3.org/2000/svg">
<path d="M17.177 15.0178H13.2307C11.3513 15.0178 9.8103 16.5542 9.8103 18.4382C9.8103 20.3222 11.3513 21.8587 13.2307 21.8587H15.8189L17.9864 23.3082C18.2105 23.4591 18.5077 23.2991 18.5077 23.0293V21.5889C19.7332 21.0676 20.5975 19.8512 20.5975 18.4382C20.5975 16.5588 19.0565 15.0178 17.177 15.0178Z" fill="#75519E"/>
<path d="M10.7569 14.1993C11.9184 13.518 13.1667 13.5271 14.4562 13.5271H17.177C17.7807 13.5408 18.3751 13.6643 18.9284 13.8838C19.3034 13.1339 19.5229 12.297 19.5229 11.4053C19.5229 8.35073 17.0216 5.84943 13.967 5.84943H7.55592C4.50131 5.84943 2 8.35073 2 11.4053C2 13.6963 3.40384 15.6717 5.393 16.5223V18.8681C5.393 19.3025 5.87771 19.5632 6.23896 19.3208L8.37902 17.8895C8.55736 16.3851 9.38961 15.0087 10.7569 14.2039V14.1993Z" fill="url(#paint0_linear_101_779)"/>
<path d="M21.7588 4.69249C20.9814 4.53244 20.3961 3.9517 20.2406 3.17432C20.1766 2.8588 19.669 2.8588 19.605 3.17432C19.445 3.9517 18.8642 4.53701 18.0869 4.69249C17.7713 4.7565 17.7713 5.26408 18.0869 5.3281C18.8642 5.48815 19.4495 6.06889 19.605 6.84626C19.637 7.00631 19.7514 7.07947 19.8748 7.08405C20.0303 7.10691 20.2086 7.01088 20.2452 6.84626C20.4053 6.06889 20.986 5.48358 21.7634 5.3281C22.0789 5.26408 22.0789 4.7565 21.7634 4.69249H21.7588Z" fill="url(#paint1_linear_101_779)"/>
<path d="M17.5565 2.27809C16.9895 2.16377 16.5688 1.7385 16.4499 1.17148C16.4042 0.94284 16.0338 0.94284 15.9881 1.17148C15.8737 1.7385 15.4485 2.16377 14.8814 2.27809C14.6528 2.32382 14.6528 2.69421 14.8814 2.73994C15.4485 2.85426 15.8692 3.27953 15.9881 3.84655C16.0109 3.96087 16.0932 4.01575 16.1847 4.02032C16.299 4.03404 16.427 3.96545 16.4545 3.84655C16.5688 3.27953 16.9941 2.85883 17.5611 2.73994C17.7897 2.69421 17.7897 2.32382 17.5611 2.27809H17.5565Z" fill="url(#paint2_linear_101_779)"/>
<defs>
<linearGradient id="paint0_linear_101_779" x1="2" y1="12.6309" x2="19.5229" y2="12.6309" gradientUnits="userSpaceOnUse">
<stop stop-color="#41D5E7"/>
<stop offset="0.18" stop-color="#2ECDE4"/>
<stop offset="0.49" stop-color="#16C3E0"/>
<stop offset="0.77" stop-color="#07BDDD"/>
<stop offset="1" stop-color="#02BBDD"/>
</linearGradient>
<linearGradient id="paint1_linear_101_779" x1="17.8445" y1="5.01258" x2="21.992" y2="5.01258" gradientUnits="userSpaceOnUse">
<stop stop-color="#FEC839"/>
<stop offset="1" stop-color="#F19139"/>
</linearGradient>
<linearGradient id="paint2_linear_101_779" x1="14.7122" y1="2.5113" x2="17.7303" y2="2.5113" gradientUnits="userSpaceOnUse">
<stop stop-color="#FEC839"/>
<stop offset="1" stop-color="#F19139"/>
</linearGradient>
</defs>
</svg>
