<svg width="24" height="25" viewBox="0 0 24 25" fill="none" xmlns="http://www.w3.org/2000/svg">
<path d="M14.6597 7.03133H17.7693C17.7287 6.98338 17.6955 6.93174 17.6513 6.88378L14.2208 3.45332C13.97 3.20249 13.6601 3.02543 13.3281 2.91846V5.69603C13.3281 6.43376 13.9257 7.02764 14.6597 7.02764V7.03133Z" fill="#75519E"/>
<path d="M15.6116 21.6126C15.1874 21.8745 14.671 21.9483 14.1656 21.7307C13.5312 21.4577 13.1549 20.7901 13.1549 20.1003V19.9601C12.0705 19.1375 11.4692 17.7801 11.6573 16.3563C11.9155 14.4013 13.6898 13.0033 15.6632 13.0033H18.3006V8.45513L18.2084 8.36291H15.8661C14.7595 8.36291 13.6271 8.44037 12.7713 7.58091C11.8897 6.69932 11.9893 5.52263 11.9893 4.39021V2.80408H4.77794C3.79675 2.80408 3 3.60083 3 4.58202V21.0261C3 22.0073 3.79675 22.8041 4.77794 22.8041H15.1173C15.3903 22.8041 15.6153 22.5828 15.6153 22.3061V21.6163L15.6116 21.6126ZM9.7761 18.7797H6.03578C5.55256 18.7797 5.16156 18.3887 5.16156 17.9055C5.16156 17.4223 5.55256 17.0313 6.03578 17.0313H9.7761C10.2593 17.0313 10.6503 17.4223 10.6503 17.9055C10.6503 18.3887 10.2593 18.7797 9.7761 18.7797ZM10.6503 14.405C10.6503 14.8882 10.2593 15.2792 9.7761 15.2792H6.03578C5.55256 15.2792 5.16156 14.8882 5.16156 14.405C5.16156 13.9217 5.55256 13.5307 6.03578 13.5307H9.7761C10.2593 13.5307 10.6503 13.9217 10.6503 14.405ZM6.03578 11.7786C5.55256 11.7786 5.16156 11.3876 5.16156 10.9044C5.16156 10.4212 5.55256 10.0302 6.03578 10.0302H15.1948C15.678 10.0302 16.069 10.4212 16.069 10.9044C16.069 11.3876 15.678 11.7786 15.1948 11.7786H6.03578Z" fill="#75519E"/>
<path d="M19.8391 18.5105H18.0575C17.2091 18.5105 16.5156 19.204 16.5156 20.0524C16.5156 20.9008 17.2091 21.5942 18.0575 21.5942H19.2268L20.2043 22.2471C20.3039 22.3135 20.4404 22.2434 20.4404 22.1217V21.4725C20.9937 21.2364 21.3847 20.6868 21.3847 20.0524C21.3847 19.204 20.6912 18.5105 19.8428 18.5105H19.8391Z" fill="url(#paint0_linear_55_2161)"/>
<path d="M16.9435 18.1416C17.4673 17.8355 18.0316 17.8392 18.6107 17.8392H19.8391C20.112 17.8465 20.3776 17.9019 20.6285 17.9978C20.7981 17.6621 20.8977 17.2822 20.8977 16.8801C20.8977 15.5005 19.769 14.3755 18.3931 14.3755H15.5012C14.1216 14.3755 12.9966 15.5042 12.9966 16.8801C12.9966 17.9129 13.631 18.8056 14.5274 19.1892V20.2479C14.5274 20.4434 14.745 20.5614 14.911 20.4507L15.8774 19.8052C15.9586 19.1265 16.3311 18.5068 16.9508 18.1416H16.9435Z" fill="url(#paint1_linear_55_2161)"/>
<defs>
<linearGradient id="paint0_linear_55_2161" x1="16.5193" y1="20.3917" x2="21.3847" y2="20.3917" gradientUnits="userSpaceOnUse">
<stop stop-color="#FFCC39"/>
<stop offset="0.61" stop-color="#F7AB39"/>
<stop offset="1" stop-color="#F19139"/>
</linearGradient>
<linearGradient id="paint1_linear_55_2161" x1="12.9929" y1="17.4334" x2="20.8977" y2="17.4334" gradientUnits="userSpaceOnUse">
<stop stop-color="#41D5E7"/>
<stop offset="0.18" stop-color="#2ECDE4"/>
<stop offset="0.49" stop-color="#16C3E0"/>
<stop offset="0.77" stop-color="#07BDDD"/>
<stop offset="1" stop-color="#02BBDD"/>
</linearGradient>
</defs>
</svg>
