<svg width="60" height="60" viewBox="0 0 60 60" fill="none" xmlns="http://www.w3.org/2000/svg">
<rect width="60" height="60" rx="11" fill="#E1D8FF"/>
<path d="M29.9827 28.3365C33.2513 28.3365 35.901 25.6868 35.901 22.4183C35.901 19.1497 33.2513 16.5 29.9827 16.5C26.7142 16.5 24.0645 19.1497 24.0645 22.4183C24.0645 25.6868 26.7142 28.3365 29.9827 28.3365Z" fill="#75519E"/>
<path d="M40.4204 39.1771L38.4064 40.5228C38.0434 40.7662 37.6184 40.8946 37.1846 40.8946C35.9673 40.8946 34.9802 39.9075 34.9802 38.6902V38.0307C34.9802 37.9288 34.9271 37.8315 34.8474 37.7695C33.2539 36.6186 32.28 34.7683 32.28 32.7542C32.28 31.8291 32.4837 30.9526 32.8511 30.1603C32.9263 29.9965 32.8289 29.8062 32.6519 29.7796C32.2092 29.7221 31.7621 29.6955 31.3062 29.6955H28.6591C22.763 29.6999 17.9823 34.485 18 40.3856C18.0045 42.3731 19.6334 43.9799 21.6254 43.9799H38.34C40.3009 43.9799 41.9431 42.4218 41.9653 40.4608C41.9697 40.0403 41.9476 39.6242 41.9033 39.2125C41.8856 39.0576 41.7528 38.9425 41.5979 38.9425H41.1818C40.9118 38.9425 40.6462 39.0222 40.4204 39.1727V39.1771Z" fill="#75519E"/>
<path d="M34.0508 32.7542C34.0508 34.578 35.1707 36.1538 36.7554 36.8266V38.6902C36.7554 39.0355 37.1405 39.2435 37.4282 39.0488L40.2302 37.1719H43.5767C46.0068 37.1719 47.9988 35.18 47.9988 32.7498C47.9988 30.3196 46.0068 28.3277 43.5767 28.3277H38.4729C36.0427 28.3277 34.0508 30.3196 34.0508 32.7498V32.7542ZM41.0314 34.4806H38.3268C37.592 34.4806 37.592 33.343 38.3268 33.343C39.2298 33.343 40.1284 33.343 41.0314 33.343C41.7662 33.343 41.7662 34.4806 41.0314 34.4806ZM43.736 32.1522H38.3268C37.592 32.1522 37.592 31.0146 38.3268 31.0146H43.736C44.4708 31.0146 44.4708 32.1522 43.736 32.1522Z" fill="url(#paint0_linear_412_14021)"/>
<defs>
<linearGradient id="paint0_linear_412_14021" x1="35.8302" y1="37.951" x2="45.4225" y2="28.3543" gradientUnits="userSpaceOnUse">
<stop stop-color="#FEC839"/>
<stop offset="0.14" stop-color="#FABB39"/>
<stop offset="0.45" stop-color="#F5A339"/>
<stop offset="0.75" stop-color="#F29539"/>
<stop offset="1" stop-color="#F19139"/>
</linearGradient>
</defs>
</svg>
