<svg width="61" height="60" viewBox="0 0 61 60" fill="none" xmlns="http://www.w3.org/2000/svg">
<rect x="0.333984" width="60" height="60" rx="11" fill="#E1D8FF"/>
<path d="M34.3097 15.5848L41.019 22.2941C41.2576 22.5327 41.0892 22.9351 40.7523 22.9351H36.2888C34.8384 22.9351 33.6641 21.7607 33.6641 20.3103V15.8515C33.6641 15.5146 34.0711 15.3462 34.305 15.5848H34.3097Z" fill="url(#paint0_linear_412_14049)"/>
<path d="M41.2046 26.1822H37.2043C33.4613 26.1822 30.4248 23.1457 30.4248 19.4027V15.3977C30.4248 15.1778 30.247 15 30.0271 15H21.9002C20.5761 15 19.5 16.0761 19.5 17.4002V42.5998C19.5 43.9239 20.5761 45 21.9002 45H39.2021C40.5262 45 41.6023 43.9239 41.6023 42.5998V26.5798C41.6023 26.3599 41.4245 26.1822 41.2046 26.1822ZM37.209 32.8166C35.0942 34.9594 32.9794 37.1023 30.8646 39.2498C30.2517 39.8721 29.1803 39.8721 28.5674 39.2498C27.3182 37.9726 26.0643 36.6999 24.815 35.4226C23.3506 33.9301 25.6432 31.6329 27.1076 33.1301C27.9779 34.0143 28.8481 34.9033 29.7137 35.7876C31.4448 34.0331 33.1759 32.2785 34.9071 30.524C36.3762 29.0362 38.6687 31.3288 37.2043 32.8166H37.209Z" fill="#75519E"/>
<defs>
<linearGradient id="paint0_linear_412_14049" x1="32.4289" y1="16.9323" x2="39.6715" y2="24.175" gradientUnits="userSpaceOnUse">
<stop stop-color="#FEC839"/>
<stop offset="0.08" stop-color="#F9B639"/>
<stop offset="0.18" stop-color="#F5A539"/>
<stop offset="0.31" stop-color="#F39939"/>
<stop offset="0.49" stop-color="#F19239"/>
<stop offset="1" stop-color="#F19139"/>
</linearGradient>
</defs>
</svg>
