<svg width="61" height="60" viewBox="0 0 61 60" fill="none" xmlns="http://www.w3.org/2000/svg">
<rect x="0.666016" width="60" height="60" rx="11" fill="#E1D8FF"/>
<path d="M50.7486 31.9162L43.815 38.5481C43.5551 38.7987 43.2395 38.9797 42.8961 39.0818L39.5221 40.0889C38.9467 40.2606 38.4176 39.7084 38.6172 39.1422L39.7728 35.8146C39.8888 35.4758 40.0883 35.1695 40.3482 34.9189L47.2818 28.287C47.602 27.9807 48.1126 27.99 48.4235 28.3102L50.7765 30.7699C51.0828 31.0901 51.0735 31.6006 50.7533 31.9116L50.7486 31.9162Z" fill="url(#paint0_linear_412_14034)"/>
<path d="M37.5404 35.0396C37.7817 34.3481 38.1808 33.7216 38.7099 33.2158L45.3789 26.8344C45.5321 26.6859 45.6203 26.4817 45.6203 26.2682V18.3044C45.6203 16.4805 44.1398 15 42.3159 15H24.3044C22.4805 15 21 16.4805 21 18.3044V41.4488C21 43.2727 22.4805 44.7532 24.3044 44.7532H42.3113C44.1352 44.7532 45.6156 43.2727 45.6156 41.4488V40.4C45.6156 40.2886 45.4857 40.2282 45.4021 40.3025C44.7524 40.8733 43.5643 41.3421 43.5643 41.3421L40.1903 42.3492C39.898 42.4373 39.6009 42.4791 39.2993 42.4791C37.8606 42.4791 36.5333 41.4627 36.2409 39.908C36.1434 39.3789 36.2131 38.8359 36.3848 38.3254L37.5264 35.035L37.5404 35.0396ZM27.4649 20.5691H39.1554C39.8655 20.5691 40.4456 21.1446 40.4456 21.8593C40.4456 22.574 39.8701 23.1495 39.1554 23.1495H27.4649C26.7548 23.1495 26.1747 22.574 26.1747 21.8593C26.1747 21.1446 26.7501 20.5691 27.4649 20.5691ZM31.6835 38.6085H27.4649C26.7548 38.6085 26.1747 38.0331 26.1747 37.3184C26.1747 36.6036 26.7501 36.0282 27.4649 36.0282H31.6835C32.3935 36.0282 32.9737 36.6036 32.9737 37.3184C32.9737 38.0331 32.3982 38.6085 31.6835 38.6085ZM33.9808 33.4524H27.4649C26.7548 33.4524 26.1747 32.877 26.1747 32.1623C26.1747 31.4475 26.7501 30.8721 27.4649 30.8721H33.9808C34.6908 30.8721 35.2709 31.4475 35.2709 32.1623C35.2709 32.877 34.6955 33.4524 33.9808 33.4524ZM27.4649 28.2963C26.7548 28.2963 26.1747 27.7209 26.1747 27.0062C26.1747 26.2914 26.7501 25.716 27.4649 25.716H37.4475C38.1576 25.716 38.7377 26.2914 38.7377 27.0062C38.7377 27.7209 38.1623 28.2963 37.4475 28.2963H27.4649Z" fill="#75519E"/>
<defs>
<linearGradient id="paint0_linear_412_14034" x1="42.381" y1="32.8862" x2="46.0798" y2="36.585" gradientUnits="userSpaceOnUse">
<stop stop-color="#FEC839"/>
<stop offset="0.04" stop-color="#FCC239"/>
<stop offset="0.23" stop-color="#F7AC39"/>
<stop offset="0.43" stop-color="#F39D39"/>
<stop offset="0.67" stop-color="#F19339"/>
<stop offset="1" stop-color="#F19139"/>
</linearGradient>
</defs>
</svg>
