<svg width="24" height="24" viewBox="0 0 24 24" fill="none" xmlns="http://www.w3.org/2000/svg">
<path d="M9.56662 4.33452H5.26392C5.20489 4.33452 5.14586 4.34764 5.09011 4.38043L3.47987 5.30853L2.31237 5.98411C1.89588 6.22351 1.89588 6.82366 2.31237 7.06306L3.47987 7.73864L5.09011 8.66674C5.14586 8.69953 5.20817 8.71265 5.26392 8.70937H9.56662C9.82571 8.70937 10.0356 8.49948 10.0356 8.2404V4.80021C10.0356 4.54113 9.82571 4.33124 9.56662 4.33124V4.33452Z" fill="url(#paint0_linear_101_759)"/>
<path d="M21.6876 11.0247L20.5201 10.3491L18.9098 9.42102C18.8541 9.38823 18.7918 9.37511 18.736 9.37839H14.4333C14.1742 9.37839 13.9644 9.58828 13.9644 9.84736V13.2876C13.9644 13.5466 14.1742 13.7565 14.4333 13.7565H18.736C18.7951 13.7565 18.8541 13.7434 18.9098 13.7106L20.5201 12.7825L21.6876 12.1069C22.1041 11.8675 22.1041 11.2674 21.6876 11.028V11.0247Z" fill="url(#paint1_linear_101_759)"/>
<path d="M12.6757 17.5804V4.67886C12.6757 4.30393 12.3717 4 11.9968 4C11.6219 4 11.3179 4.30393 11.3179 4.67886V17.5804C11.3179 17.9553 11.6219 18.2593 11.9968 18.2593C12.3717 18.2593 12.6757 17.9553 12.6757 17.5804Z" fill="#75519E"/>
<path d="M9.44206 19.5252H14.5515C14.7122 19.5252 14.8467 19.3874 14.8204 19.23C14.6466 18.1609 13.7251 17.341 12.6068 17.341H11.3835C10.2783 17.341 9.36336 18.1412 9.17642 19.1939C9.14691 19.3645 9.26825 19.5252 9.44206 19.5252Z" fill="url(#paint2_linear_101_759)"/>
<defs>
<linearGradient id="paint0_linear_101_759" x1="1.99754" y1="6.52194" x2="10.0356" y2="6.52194" gradientUnits="userSpaceOnUse">
<stop stop-color="#41D5E7"/>
<stop offset="0.18" stop-color="#2ECDE4"/>
<stop offset="0.49" stop-color="#16C3E0"/>
<stop offset="0.77" stop-color="#07BDDD"/>
<stop offset="1" stop-color="#02BBDD"/>
</linearGradient>
<linearGradient id="paint1_linear_101_759" x1="13.9611" y1="11.5625" x2="21.9991" y2="11.5625" gradientUnits="userSpaceOnUse">
<stop stop-color="#41D5E7"/>
<stop offset="0.18" stop-color="#2ECDE4"/>
<stop offset="0.49" stop-color="#16C3E0"/>
<stop offset="0.77" stop-color="#07BDDD"/>
<stop offset="1" stop-color="#02BBDD"/>
</linearGradient>
<linearGradient id="paint2_linear_101_759" x1="10.3997" y1="17.3968" x2="13.5972" y2="20.5943" gradientUnits="userSpaceOnUse">
<stop stop-color="#FEC839"/>
<stop offset="0.13" stop-color="#FBBC39"/>
<stop offset="0.45" stop-color="#F5A439"/>
<stop offset="0.75" stop-color="#F29539"/>
<stop offset="1" stop-color="#F19139"/>
</linearGradient>
</defs>
</svg>
