<svg width="24" height="25" viewBox="0 0 24 25" fill="none" xmlns="http://www.w3.org/2000/svg">
<path d="M9.78889 11.8273H4.02012C3.45672 11.8273 3 12.284 3 12.8474V20.6564C3 21.2198 3.45672 21.6765 4.02012 21.6765H9.78889C10.3523 21.6765 10.809 21.2198 10.809 20.6564V12.8474C10.809 12.284 10.3523 11.8273 9.78889 11.8273Z" fill="#75519E"/>
<path d="M19.9183 3.80408H14.1495C13.5861 3.80408 13.1294 4.2608 13.1294 4.8242V12.6332C13.1294 13.1966 13.5861 13.6533 14.1495 13.6533H19.9183C20.4817 13.6533 20.9384 13.1966 20.9384 12.6332V4.8242C20.9384 4.2608 20.4817 3.80408 19.9183 3.80408Z" fill="#75519E"/>
<path d="M19.9183 15.9945H14.1495C13.5861 15.9945 13.1294 16.4512 13.1294 17.0146V20.784C13.1294 21.3474 13.5861 21.8041 14.1495 21.8041H19.9183C20.4817 21.8041 20.9384 21.3474 20.9384 20.784V17.0146C20.9384 16.4512 20.4817 15.9945 19.9183 15.9945Z" fill="url(#paint0_linear_55_2038)"/>
<path d="M9.78889 3.80408H4.02012C3.45672 3.80408 3 4.2608 3 4.8242V8.59353C3 9.15693 3.45672 9.61365 4.02012 9.61365H9.78889C10.3523 9.61365 10.809 9.15693 10.809 8.59353V4.8242C10.809 4.2608 10.3523 3.80408 9.78889 3.80408Z" fill="url(#paint1_linear_55_2038)"/>
<defs>
<linearGradient id="paint0_linear_55_2038" x1="13.1294" y1="18.8967" x2="20.9384" y2="18.8967" gradientUnits="userSpaceOnUse">
<stop stop-color="#41D5E7"/>
<stop offset="0.18" stop-color="#2ECDE4"/>
<stop offset="0.49" stop-color="#16C3E0"/>
<stop offset="0.77" stop-color="#07BDDD"/>
<stop offset="1" stop-color="#02BBDD"/>
</linearGradient>
<linearGradient id="paint1_linear_55_2038" x1="3" y1="6.71141" x2="10.809" y2="6.71141" gradientUnits="userSpaceOnUse">
<stop stop-color="#FEC839"/>
<stop offset="0.13" stop-color="#FBBC39"/>
<stop offset="0.45" stop-color="#F5A439"/>
<stop offset="0.75" stop-color="#F29539"/>
<stop offset="1" stop-color="#F19139"/>
</linearGradient>
</defs>
</svg>
