<svg width="61" height="60" viewBox="0 0 61 60" fill="none" xmlns="http://www.w3.org/2000/svg">
<rect x="0.333374" width="60" height="60" rx="11" fill="#E1D8FF"/>
<path d="M25.7192 19.4817H32.6986C37.506 19.4817 41.57 22.7578 42.7626 27.1972C42.8215 27.4254 43.1381 27.4402 43.2338 27.2267C43.6976 26.1297 43.9111 24.9002 43.808 23.6118C43.4841 19.5479 39.9282 16.5 35.8496 16.5H29.1058C26.6837 16.5 24.5192 17.6117 23.0983 19.3565C22.9511 19.5406 23.113 19.813 23.3413 19.7614C24.0996 19.5847 24.8947 19.489 25.7119 19.489L25.7192 19.4817Z" fill="#75519E"/>
<path d="M31.6606 22.2792H23.761C18.924 22.2792 15 26.2032 15 31.0401C15 34.4194 16.9215 37.3421 19.7265 38.8072C19.778 38.8293 19.8148 38.8661 19.8517 38.9103C19.8958 38.9692 19.9179 39.0354 19.9179 39.1091V41.8404C19.9179 42.1423 20.2566 42.3263 20.5143 42.1644L24.1438 39.8674C24.1438 39.8674 24.2174 39.8305 24.2542 39.8158C24.3058 39.8011 24.3499 39.7937 24.4015 39.7937H31.6679C32.279 39.7937 32.8679 39.7348 33.4422 39.6097C33.8029 39.5361 33.9355 39.0796 33.6778 38.8146L32.2348 37.3716C30.755 35.8918 30.7256 33.5138 32.1538 31.9457C32.8606 31.1727 33.8839 30.7309 34.9662 30.7309C35.5993 30.7309 36.2177 30.8855 36.7699 31.1653C37.0717 31.3199 37.4251 31.261 37.6681 31.0254C38.154 30.5395 38.9564 29.737 39.6706 29.0303C39.943 28.7579 40.024 28.353 39.8841 27.9922C38.6472 24.6571 35.4447 22.2792 31.6753 22.2792H31.6606ZM26.6028 34.5298H21.2799C20.8824 34.5298 20.4848 34.3163 20.3302 33.9482C20.021 33.212 20.5584 32.4978 21.2578 32.4978H26.5807C26.9782 32.4978 27.3758 32.7113 27.5304 33.0795C27.8396 33.8157 27.3022 34.5298 26.6028 34.5298ZM30.2986 29.5014H21.2799C20.8824 29.5014 20.4848 29.2879 20.3302 28.9198C20.021 28.1836 20.5584 27.4695 21.2578 27.4695H30.2765C30.674 27.4695 31.0716 27.683 31.2262 28.0511C31.5354 28.7873 30.998 29.5014 30.2986 29.5014Z" fill="#75519E"/>
<path d="M44.6253 29.5605C44.1173 29.0967 43.3295 29.0599 42.8289 29.5605C41.4448 30.9446 38.6472 33.7349 37.2705 35.119C36.8067 34.6551 36.3429 34.1913 35.879 33.7275C35.4079 33.2563 34.5465 33.2195 34.0827 33.7275C33.6189 34.2355 33.5821 35.0232 34.0827 35.5239C34.8483 36.2895 35.614 37.0552 36.3797 37.8209C36.8656 38.3068 37.6901 38.3068 38.176 37.8209C39.6411 36.3484 42.5271 33.4772 43.9921 32.0048C44.2056 31.7913 44.4191 31.5778 44.6327 31.3643C45.1038 30.8931 45.1406 30.0317 44.6327 29.5679L44.6253 29.5605Z" fill="url(#paint0_linear_131_5327)"/>
<defs>
<linearGradient id="paint0_linear_131_5327" x1="33.7072" y1="33.6907" x2="44.986" y2="33.6907" gradientUnits="userSpaceOnUse">
<stop stop-color="#FEC839"/>
<stop offset="0.08" stop-color="#F9B639"/>
<stop offset="0.18" stop-color="#F5A539"/>
<stop offset="0.31" stop-color="#F39939"/>
<stop offset="0.49" stop-color="#F19239"/>
<stop offset="1" stop-color="#F19139"/>
</linearGradient>
</defs>
</svg>
