<svg width="24" height="24" viewBox="0 0 24 24" fill="none" xmlns="http://www.w3.org/2000/svg">
<path d="M7.96465 5.29923H13.3444C17.05 5.29923 20.1751 7.82169 21.0993 11.2415C21.1484 11.4156 21.3895 11.429 21.4609 11.2638C21.8136 10.4156 21.9833 9.4691 21.9029 8.47798C21.6529 5.34834 18.9117 3 15.7731 3H10.5764C8.71023 3 7.04496 3.85719 5.95115 5.20101C5.83507 5.33941 5.96454 5.55371 6.13866 5.50907C6.72351 5.37067 7.33515 5.29923 7.96465 5.29923Z" fill="#75519E"/>
<path d="M13.3444 7.36627H7.96461C4.66979 7.36627 2 10.0405 2 13.3353C2 15.639 3.30811 17.6302 5.21893 18.6258C5.25018 18.6437 5.28143 18.666 5.30375 18.6972C5.33054 18.7374 5.3484 18.7821 5.3484 18.8312V20.6929C5.3484 20.8983 5.57609 21.0277 5.7502 20.9161L8.21909 19.3535C8.24141 19.3401 8.2682 19.3267 8.29499 19.3178C8.32624 19.3089 8.36195 19.3 8.39767 19.3H13.3444C16.6392 19.3 19.309 16.6302 19.309 13.3353C19.309 10.0405 16.6392 7.37074 13.3444 7.37074V7.36627ZM11.4246 16.6659C11.4246 16.7329 11.4023 16.7909 11.3532 16.84C11.3041 16.8891 11.246 16.9114 11.1701 16.9114H10.1879C10.121 16.9114 10.0629 16.8891 10.0138 16.84C9.96472 16.7909 9.9424 16.7373 9.9424 16.6659V15.7864C9.9424 15.7105 9.96472 15.6524 10.0138 15.6033C10.0629 15.5542 10.1165 15.5319 10.1879 15.5319H11.1701C11.246 15.5319 11.3041 15.5542 11.3532 15.6033C11.4023 15.6524 11.4246 15.7105 11.4246 15.7864V16.6659ZM13.014 12.304C12.9113 12.5049 12.7863 12.6925 12.639 12.8666C12.4916 13.0407 12.3399 13.2059 12.1836 13.3711C12.0273 13.5363 11.8934 13.7014 11.7729 13.8711C11.6523 14.0407 11.5764 14.2193 11.5362 14.4068C11.5228 14.4693 11.5139 14.5274 11.505 14.5854C11.5005 14.6435 11.4916 14.697 11.4871 14.7506C11.4603 14.831 11.4246 14.8935 11.3844 14.9381C11.3443 14.9828 11.2862 15.0051 11.2103 15.0051H10.2192C10.1656 15.0051 10.1165 14.9872 10.0763 14.947C10.0362 14.9113 10.0138 14.8622 10.0138 14.7997V14.4783C10.0406 14.2149 10.1121 13.9827 10.2326 13.7773C10.3487 13.572 10.4871 13.3845 10.6478 13.2103C10.8041 13.0362 10.9648 12.8755 11.121 12.7192C11.2818 12.563 11.4157 12.4112 11.5273 12.2594C11.6389 12.1076 11.7059 11.9513 11.7237 11.7906C11.7461 11.5942 11.7059 11.429 11.6077 11.2951C11.5094 11.1611 11.38 11.0584 11.2148 10.987C11.0496 10.9156 10.8755 10.8799 10.6924 10.8799C10.3755 10.8799 10.1165 10.9602 9.91561 11.112C9.71471 11.2683 9.57631 11.5183 9.50041 11.8621C9.48255 11.9424 9.44684 12.0005 9.39773 12.0406C9.34862 12.0764 9.28611 12.0987 9.20575 12.0987H8.3441C8.28606 12.0987 8.23248 12.0764 8.18784 12.0317C8.14319 11.9871 8.12087 11.929 8.12087 11.8531C8.12533 11.5853 8.18784 11.3218 8.30838 11.0674C8.42446 10.8129 8.59857 10.5852 8.82627 10.3843C9.05396 10.1834 9.32629 10.0227 9.6522 9.90659C9.97811 9.78605 10.3487 9.72801 10.7639 9.72801C11.2237 9.72801 11.6077 9.78605 11.9202 9.90659C12.2327 10.0227 12.4827 10.1789 12.6702 10.3664C12.8577 10.5539 12.9872 10.7593 13.072 10.9781C13.1524 11.1968 13.1881 11.4111 13.1836 11.621C13.1703 11.8799 13.1122 12.1076 13.0095 12.3085L13.014 12.304Z" fill="url(#paint0_linear_152_7024)"/>
<path d="M16.8892 20.0991C17.5097 19.9741 17.9741 19.5098 18.0991 18.8892C18.1482 18.6392 18.5544 18.6392 18.608 18.8892C18.733 19.5098 19.1973 19.9741 19.8179 20.0991C20.0679 20.1482 20.0679 20.5545 19.8179 20.6081C19.1973 20.7331 18.733 21.1974 18.608 21.818C18.5812 21.943 18.4919 22.001 18.3937 22.0055C18.2687 22.0233 18.1258 21.9474 18.0991 21.818C17.9741 21.1974 17.5097 20.7331 16.8892 20.6081C16.6392 20.559 16.6392 20.1527 16.8892 20.0991Z" fill="url(#paint1_linear_152_7024)"/>
<path d="M19.7331 16.8177C20.184 16.7239 20.5233 16.3891 20.6126 15.9382C20.6483 15.7551 20.943 15.7551 20.9832 15.9382C21.0769 16.3891 21.4118 16.7284 21.8627 16.8177C22.0457 16.8534 22.0457 17.1481 21.8627 17.1883C21.4118 17.282 21.0725 17.6168 20.9832 18.0678C20.9653 18.1615 20.8984 18.2017 20.8269 18.2062C20.7376 18.2196 20.6305 18.1615 20.6126 18.0678C20.5189 17.6168 20.184 17.2775 19.7331 17.1883C19.5501 17.1525 19.5501 16.8579 19.7331 16.8177Z" fill="url(#paint2_linear_152_7024)"/>
<defs>
<linearGradient id="paint0_linear_152_7024" x1="2" y1="14.1613" x2="19.309" y2="14.1613" gradientUnits="userSpaceOnUse">
<stop stop-color="#41D5E7"/>
<stop offset="0.03" stop-color="#3DD3E6"/>
<stop offset="0.26" stop-color="#23C8E2"/>
<stop offset="0.49" stop-color="#10C1DF"/>
<stop offset="0.73" stop-color="#05BCDD"/>
<stop offset="1" stop-color="#02BBDD"/>
</linearGradient>
<linearGradient id="paint1_linear_152_7024" x1="20.0054" y1="20.3536" x2="16.6972" y2="20.3536" gradientUnits="userSpaceOnUse">
<stop stop-color="#FEC839"/>
<stop offset="0.16" stop-color="#FAB839"/>
<stop offset="0.46" stop-color="#F5A239"/>
<stop offset="0.74" stop-color="#F29539"/>
<stop offset="1" stop-color="#F19139"/>
</linearGradient>
<linearGradient id="paint2_linear_152_7024" x1="22.0011" y1="17.0007" x2="19.5947" y2="17.0007" gradientUnits="userSpaceOnUse">
<stop stop-color="#FEC839"/>
<stop offset="0.16" stop-color="#FAB839"/>
<stop offset="0.46" stop-color="#F5A239"/>
<stop offset="0.74" stop-color="#F29539"/>
<stop offset="1" stop-color="#F19139"/>
</linearGradient>
</defs>
</svg>
