<svg width="20" height="20" viewBox="0 0 20 20" fill="none" xmlns="http://www.w3.org/2000/svg">
<path d="M5.19447 5.00352H11.8795C13.3106 5.00352 13.3106 2.78017 11.8795 2.78017H11.091C11.091 2.2234 10.736 1.66663 10.0186 1.66663H7.02173C6.30428 1.66663 5.94929 2.2234 5.94929 2.78017H5.19447C3.7633 2.78017 3.7633 5.00352 5.19447 5.00352Z" fill="#ABC3D2"/>
<path d="M17.3689 12.9814L16.8906 12.5031C16.6739 12.2864 16.3189 12.2864 16.1022 12.5031L15.7285 12.8768L12.6495 15.9559C12.5934 16.0119 12.5934 16.1053 12.6495 16.1614C13.0044 16.5164 13.3594 16.8714 13.7144 17.2263C13.7705 17.2824 13.8639 17.2824 13.9199 17.2263L16.9355 14.2033L17.3689 13.7699C17.5857 13.5531 17.5857 13.1982 17.3689 12.9814Z" fill="#ABC3D2"/>
<path d="M13.3851 17.7607L11.6587 18.3287C11.5914 18.3511 11.5317 18.2876 11.5503 18.2203L12.1221 16.4977C12.1407 16.4379 12.2192 16.4192 12.2641 16.464L13.4224 17.6224C13.4673 17.6673 13.4486 17.742 13.3888 17.7644L13.3851 17.7607Z" fill="#ABC3D2"/>
<path d="M14.2075 3.98719C14.129 3.97598 14.0655 4.04324 14.058 4.12171C13.9832 5.27262 13.0229 6.18438 11.8533 6.18438H5.22436C4.05102 6.18438 3.09442 5.27262 3.01969 4.12171C3.01595 4.04324 2.94869 3.97972 2.87022 3.98719C2.19013 4.0694 1.66699 4.64485 1.66699 5.34736V16.8228C1.66699 17.6561 2.34334 18.3325 3.17663 18.3325H9.75701C10.0223 18.3325 10.2615 18.1643 10.3511 17.914L11.0424 15.9447C11.0798 15.8289 11.1433 15.728 11.2293 15.642L11.5095 15.3618L15.2537 11.6176C15.3546 11.5167 15.4107 11.3822 15.4107 11.2402V5.34736C15.4107 4.64859 14.8875 4.07687 14.2112 3.99093L14.2075 3.98719ZM7.1413 14.9433C6.57332 15.5187 6.00907 16.0942 5.44109 16.6659C5.27667 16.8341 4.98894 16.8341 4.82453 16.6659C4.48822 16.3259 4.15565 15.9821 3.81935 15.642C3.42699 15.2422 4.04355 14.6257 4.43591 15.0255C4.66758 15.2646 4.903 15.5 5.13468 15.7392C5.59803 15.2684 6.06138 14.7975 6.52474 14.3267C6.91709 13.9269 7.53366 14.5434 7.1413 14.9433ZM7.1413 11.711C6.57332 12.2865 6.00907 12.8619 5.44109 13.4336C5.27667 13.6018 4.98894 13.6018 4.82453 13.4336C4.48822 13.0936 4.15565 12.7498 3.81935 12.4098C3.42699 12.0099 4.04355 11.3934 4.43591 11.7932C4.66758 12.0324 4.903 12.2678 5.13468 12.5069C5.59803 12.0361 6.06138 11.5653 6.52474 11.0944C6.91709 10.6946 7.53366 11.3112 7.1413 11.711ZM7.1413 8.49368C6.57332 9.06914 6.00907 9.64459 5.44109 10.2163C5.27667 10.3845 4.98894 10.3845 4.82453 10.2163C4.48822 9.87627 4.15565 9.53249 3.81935 9.19245C3.42699 8.79262 4.04355 8.17606 4.43591 8.57589C4.66758 8.81504 4.903 9.05046 5.13468 9.28961C5.59803 8.81878 6.06138 8.34795 6.52474 7.87712C6.91709 7.47729 7.53366 8.09385 7.1413 8.49368ZM9.96253 15.941H8.45289C8.20627 15.941 8.00448 15.7392 8.00448 15.4926C8.00448 15.2459 8.20627 15.0442 8.45289 15.0442H9.96253C10.2092 15.0442 10.4109 15.2459 10.4109 15.4926C10.4109 15.7392 10.2092 15.941 9.96253 15.941ZM13.3704 12.2715C13.3704 12.5107 13.1761 12.7087 12.9332 12.7087H8.43794C8.19879 12.7087 8.00075 12.5144 8.00075 12.2715V12.2491C8.00075 12.0099 8.19506 11.8119 8.43794 11.8119H12.9332C13.1724 11.8119 13.3704 12.0062 13.3704 12.2491V12.2715ZM13.3704 9.05419C13.3704 9.29334 13.1761 9.49139 12.9332 9.49139H8.43794C8.19879 9.49139 8.00075 9.29708 8.00075 9.05419V9.03177C8.00075 8.79262 8.19506 8.59457 8.43794 8.59457H12.9332C13.1724 8.59457 13.3704 8.78888 13.3704 9.03177V9.05419Z" fill="#ABC3D2"/>
</svg>
