<svg width="24" height="24" viewBox="0 0 24 24" fill="none" xmlns="http://www.w3.org/2000/svg">
<path d="M17.9044 15.5657C19.0964 15.5657 20.0627 14.5994 20.0627 13.4074C20.0627 12.2154 19.0964 11.2491 17.9044 11.2491C16.7124 11.2491 15.7461 12.2154 15.7461 13.4074C15.7461 14.5994 16.7124 15.5657 17.9044 15.5657Z" fill="#02BBDD"/>
<path d="M21.331 20.0329C21.7777 20.0329 22.1116 19.5956 21.9658 19.1677C21.3969 17.4655 19.7934 16.2429 17.8985 16.2429C16.0035 16.2429 14.4047 17.4702 13.8358 19.1677C13.6947 19.5909 14.0239 20.0329 14.4706 20.0329H21.3263H21.331Z" fill="#02BBDD"/>
<path d="M13.4686 5.0047H8.42316C4.87773 5.0047 2 7.88243 2 11.4279C2 14.1175 3.65516 16.4122 5.99685 17.3667C6.07678 17.3996 6.12851 17.4749 6.12851 17.5595V19.3745C6.12851 19.6285 6.43415 19.7601 6.61753 19.5814L8.33853 17.8934C8.37144 17.8604 8.41376 17.8463 8.45608 17.8463H12.7398C12.815 17.8463 12.8808 17.8087 12.9184 17.7429C13.3981 16.8871 14.0846 16.1771 14.9028 15.6692C14.9827 15.6175 15.0062 15.5141 14.9498 15.4341C14.4372 14.6912 14.1927 13.746 14.3761 12.7398C14.63 11.3526 15.7162 10.2147 17.094 9.90907C17.978 9.71158 18.815 9.84794 19.5203 10.21C19.6284 10.2664 19.7507 10.163 19.7272 10.0454C19.0971 7.163 16.5344 5 13.4639 5L13.4686 5.0047ZM11.442 13.9106L10.9482 14.3573C10.7225 14.5313 10.431 14.6065 10.1583 14.5454C9.30247 14.3526 8.39965 13.5909 7.55326 12.4953L7.53916 12.4765C6.72098 11.362 6.23666 10.2852 6.28838 9.41064C6.30249 9.13321 6.45766 8.87459 6.68806 8.70531L7.25232 8.35735C7.52975 8.18807 7.88242 8.28682 8.00937 8.56895L8.5031 9.67866C8.58774 9.87145 8.54542 10.0972 8.39965 10.257L7.8589 10.8307C8.04229 11.1598 8.24448 11.4843 8.47489 11.7946C8.71 12.1003 8.96391 12.3871 9.23194 12.6504L9.93256 12.2931C10.1254 12.1943 10.3558 12.2178 10.5156 12.3495L11.4467 13.1301C11.6865 13.3322 11.6818 13.699 11.4467 13.9153L11.442 13.9106Z" fill="#02BBDD"/>
</svg>
