<svg width="32" height="32" viewBox="0 0 32 32" fill="none" xmlns="http://www.w3.org/2000/svg">
<rect width="32" height="32" rx="6" fill="#E2ECF4" fill-opacity="0.5"/>
<g clip-path="url(#clip0_271_6941)">
<path d="M23.8063 17.0467C23.2578 16.3053 22.6208 15.6337 21.9096 15.0467L23.6896 13.35C24.6229 12.46 23.2063 11.05 22.2763 11.9367L20.3763 13.7467C20.3197 13.8006 20.2683 13.8597 20.2229 13.9233C19.2859 13.4237 18.2598 13.1133 17.2029 13.01C17.2046 12.98 17.2046 12.95 17.2029 12.92V10.3767C17.2029 9.09001 15.2029 9.08668 15.2029 10.3767V12.92C15.2048 12.977 15.2104 13.0338 15.2196 13.09C14.357 13.243 13.5236 13.5298 12.7496 13.94C12.7044 13.8702 12.6518 13.8054 12.5929 13.7467L10.6929 11.9367C9.75958 11.05 8.35958 12.46 9.27625 13.35L11.0696 15.0567C10.3603 15.6426 9.72654 16.3144 9.18292 17.0567C8.41625 18.0933 10.1496 19.09 10.9096 18.0567C12.1996 16.3267 14.2996 14.9733 16.4996 14.9733C18.6996 14.9733 20.7996 16.3267 22.0796 18.0567C22.8363 19.08 24.5729 18.0833 23.8063 17.0467Z" fill="#02BBDD"/>
<path d="M16.4998 21.15C17.875 21.15 18.9898 20.0352 18.9898 18.66C18.9898 17.2848 17.875 16.17 16.4998 16.17C15.1246 16.17 14.0098 17.2848 14.0098 18.66C14.0098 20.0352 15.1246 21.15 16.4998 21.15Z" fill="#02BBDD"/>
</g>
<defs>
<clipPath id="clip0_271_6941">
<rect width="15" height="15" fill="white" transform="translate(9 8.5)"/>
</clipPath>
</defs>
</svg>
