<svg width="24" height="24" viewBox="0 0 24 24" fill="none" xmlns="http://www.w3.org/2000/svg">
<path d="M17.9044 14.5657C19.0964 14.5657 20.0627 13.5994 20.0627 12.4074C20.0627 11.2154 19.0964 10.2491 17.9044 10.2491C16.7124 10.2491 15.7461 11.2154 15.7461 12.4074C15.7461 13.5994 16.7124 14.5657 17.9044 14.5657Z" fill="#02BBDD"/>
<path d="M21.331 19.0329C21.7777 19.0329 22.1116 18.5956 21.9658 18.1677C21.3969 16.4655 19.7934 15.2429 17.8985 15.2429C16.0035 15.2429 14.4047 16.4702 13.8358 18.1677C13.6947 18.5909 14.0239 19.0329 14.4706 19.0329H21.3263H21.331Z" fill="#02BBDD"/>
<path d="M13.4686 4.0047H8.42316C4.87773 4.0047 2 6.88243 2 10.4279C2 13.1175 3.65516 15.4122 5.99685 16.3667C6.07678 16.3996 6.12851 16.4749 6.12851 16.5595V18.3745C6.12851 18.6285 6.43415 18.7601 6.61753 18.5814L8.33853 16.8934C8.37144 16.8604 8.41376 16.8463 8.45608 16.8463H12.7398C12.815 16.8463 12.8808 16.8087 12.9184 16.7429C13.3981 15.8871 14.0846 15.1771 14.9028 14.6692C14.9827 14.6175 15.0062 14.5141 14.9498 14.4341C14.4372 13.6912 14.1927 12.746 14.3761 11.7398C14.63 10.3526 15.7162 9.21471 17.094 8.90907C17.978 8.71158 18.815 8.84794 19.5203 9.21C19.6284 9.26643 19.7507 9.16298 19.7272 9.04543C19.0971 6.163 16.5344 4 13.4639 4L13.4686 4.0047ZM6.61753 8.59402C6.61753 7.97804 7.11596 7.47961 7.72724 7.47961H10.257C10.873 7.47961 11.3667 7.97804 11.3667 8.59402V9.37928C11.3667 9.40279 11.3479 9.4216 11.3244 9.4216C10.0971 9.44982 10.1583 10.6583 10.1583 10.6583C10.1583 10.6818 10.1583 10.7617 10.1583 10.8181C10.1583 10.8417 10.1395 10.8605 10.1159 10.8605C9.3683 10.8605 8.62066 10.8699 7.87301 10.8746C7.8495 10.8746 7.82599 10.8558 7.82599 10.8276C7.82599 10.7241 7.81659 10.5548 7.80718 10.4796C7.74605 10.0141 7.4216 9.6285 6.9749 9.47803C6.87145 9.44511 6.7633 9.42631 6.65045 9.4216C6.63164 9.4216 6.61283 9.40279 6.61283 9.38398V8.59402H6.61753ZM11.931 12.4639C11.931 12.6191 11.804 12.7413 11.6536 12.7413V13.0705C11.6536 13.2351 11.5125 13.3667 11.3479 13.3479C11.2021 13.3338 11.0987 13.2021 11.0987 13.0564V12.7413H6.89966V13.0705C6.89966 13.2351 6.7586 13.3667 6.59402 13.3479C6.44825 13.3338 6.34481 13.2021 6.34481 13.0564V12.7413C6.18963 12.7413 6.06738 12.6144 6.06738 12.4639V10.6301C6.06738 10.3056 6.34951 10.0423 6.67866 10.0752C6.97019 10.1034 7.18179 10.362 7.18179 10.6536V11.4059H10.8213V10.6301C10.8213 10.3197 11.0705 10.0705 11.3808 10.0705C11.6912 10.0705 11.9404 10.3197 11.9404 10.6301V12.4639H11.931Z" fill="#02BBDD"/>
</svg>
