<svg width="20" height="20" viewBox="0 0 20 20" fill="none" xmlns="http://www.w3.org/2000/svg">
<path d="M6.8403 5.00016H13.529C14.9586 5.00016 14.9624 2.77799 13.529 2.77799H12.7402C12.7484 2.63306 12.7265 2.48801 12.6759 2.35195C12.6254 2.21589 12.5472 2.09178 12.4463 1.98741C12.3454 1.88305 12.224 1.80069 12.0897 1.74553C11.9555 1.69037 11.8112 1.6636 11.6661 1.6669H8.66989C8.52478 1.6636 8.38055 1.69037 8.24628 1.74553C8.11201 1.80069 7.99062 1.88305 7.88973 1.98741C7.78885 2.09178 7.71065 2.21589 7.66007 2.35195C7.6095 2.48801 7.58763 2.63306 7.59584 2.77799H6.85512C5.4107 2.77799 5.407 5.00016 6.8403 5.00016Z" fill="#ABC3D2"/>
<path d="M15.7142 3.97437C15.7142 4.56372 15.4801 5.12894 15.0634 5.54568C14.6466 5.96242 14.0814 6.19654 13.4921 6.19654H6.87368C6.28432 6.19654 5.7191 5.96242 5.30237 5.54568C4.88563 5.12894 4.65151 4.56372 4.65151 3.97437C4.29682 3.98687 3.96091 4.13686 3.71483 4.39261C3.46876 4.64836 3.33183 4.9898 3.33302 5.34471V16.963C3.33298 17.3232 3.47481 17.669 3.72781 17.9255C3.98081 18.1819 4.32462 18.3285 4.68484 18.3333H15.6846C16.048 18.3333 16.3966 18.1889 16.6536 17.932C16.9106 17.675 17.0549 17.3264 17.0549 16.963V5.34471C17.055 4.98635 16.9147 4.64221 16.6641 4.38606C16.4135 4.1299 16.0725 3.98211 15.7142 3.97437Z" fill="#ABC3D2"/>
</svg>
