<svg width="32" height="32" viewBox="0 0 32 32" fill="none" xmlns="http://www.w3.org/2000/svg">
<rect width="32" height="32" rx="6" fill="#E2ECF4" fill-opacity="0.5"/>
<path d="M12.4603 22.5955C12.487 22.8449 12.6054 23.0755 12.7925 23.2426C12.9796 23.4098 13.222 23.5015 13.4728 23.5001H20.1658C20.4167 23.5015 20.6591 23.4098 20.8462 23.2426C21.0333 23.0755 21.1516 22.8449 21.1784 22.5955L22.0964 13.9517H11.5422L12.4603 22.5955Z" fill="#02BBDD"/>
<path d="M22.6238 9.98559H19.8831C19.891 9.79017 19.8587 9.5952 19.7882 9.41277C19.7176 9.23035 19.6104 9.06437 19.473 8.92512C19.3357 8.78587 19.1712 8.67633 18.9897 8.60329C18.8083 8.53025 18.6138 8.49527 18.4183 8.50051H15.0431C14.8479 8.49574 14.6537 8.53107 14.4727 8.60432C14.2916 8.67757 14.1276 8.78718 13.9906 8.92638C13.8536 9.06558 13.7466 9.2314 13.6763 9.41359C13.6059 9.59578 13.5737 9.79046 13.5816 9.98559H10.8106C9.50779 9.98559 9.50779 12.0107 10.8106 12.0107H22.6238C23.9401 12.0107 23.9435 9.98559 22.6238 9.98559Z" fill="#02BBDD"/>
</svg>
