<svg width="42" height="42" viewBox="0 0 42 42" fill="none" xmlns="http://www.w3.org/2000/svg">
<path d="M31.3307 25.4901C33.4167 25.4901 35.1077 23.799 35.1077 21.7131C35.1077 19.6271 33.4167 17.936 31.3307 17.936C29.2447 17.936 27.5537 19.6271 27.5537 21.7131C27.5537 23.799 29.2447 25.4901 31.3307 25.4901Z" fill="#75519E"/>
<path d="M37.3288 33.3075C38.1106 33.3075 38.6948 32.5422 38.4397 31.7934C37.444 28.8145 34.638 26.675 31.3218 26.675C28.0056 26.675 25.2078 28.8228 24.2121 31.7934C23.9653 32.534 24.5413 33.3075 25.323 33.3075H37.3206H37.3288Z" fill="#75519E"/>
<path d="M23.57 7.00823H14.7405C8.53602 7.00823 3.5 12.0443 3.5 18.2488C3.5 22.9556 6.39654 26.9713 10.4945 28.6417C10.6344 28.6993 10.7249 28.831 10.7249 28.9791V32.1554C10.7249 32.5998 11.2598 32.8302 11.5807 32.5175L14.5924 29.5634C14.65 29.5058 14.7241 29.4811 14.7981 29.4811H22.2946C22.4262 29.4811 22.5414 29.4152 22.6073 29.3C23.4466 27.8024 24.648 26.5599 26.0798 25.6711C26.2197 25.5806 26.2609 25.3996 26.1621 25.2597C25.2652 23.9596 24.8373 22.3056 25.1582 20.5446C25.6026 18.1171 27.5034 16.1257 29.9144 15.5909C31.4615 15.2453 32.9262 15.4839 34.1605 16.1175C34.3498 16.2163 34.5637 16.0352 34.5226 15.8295C33.4199 10.7852 28.9352 7 23.5618 7L23.57 7.00823ZM11.5807 15.0395C11.5807 13.9616 12.4529 13.0893 13.5227 13.0893H17.9498C19.0277 13.0893 19.8918 13.9616 19.8918 15.0395V16.4137C19.8918 16.4549 19.8589 16.4878 19.8177 16.4878C17.67 16.5372 17.777 18.652 17.777 18.652C17.777 18.6931 17.777 18.833 17.777 18.9318C17.777 18.9729 17.7441 19.0058 17.7029 19.0058C16.3945 19.0058 15.0861 19.0223 13.7778 19.0305C13.7366 19.0305 13.6955 18.9976 13.6955 18.9482C13.6955 18.7672 13.679 18.4709 13.6626 18.3393C13.5556 17.5246 12.9878 16.8499 12.2061 16.5865C12.025 16.5289 11.8358 16.496 11.6383 16.4878C11.6054 16.4878 11.5725 16.4549 11.5725 16.422V15.0395H11.5807ZM20.8792 21.8118C20.8792 22.0834 20.657 22.2973 20.3937 22.2973V22.8734C20.3937 23.1614 20.1469 23.3918 19.8589 23.3589C19.6038 23.3342 19.4227 23.1038 19.4227 22.8487V22.2973H12.0744V22.8734C12.0744 23.1614 11.8275 23.3918 11.5395 23.3589C11.2844 23.3342 11.1034 23.1038 11.1034 22.8487V22.2973C10.8319 22.2973 10.6179 22.0752 10.6179 21.8118V18.6026C10.6179 18.0348 11.1116 17.574 11.6877 17.6316C12.1978 17.681 12.5681 18.1336 12.5681 18.6437V19.9604H18.9372V18.6026C18.9372 18.0595 19.3734 17.6234 19.9165 17.6234C20.4596 17.6234 20.8957 18.0595 20.8957 18.6026V21.8118H20.8792Z" fill="#02BBDD"/>
</svg>
