<svg width="24" height="25" viewBox="0 0 24 25" fill="none" xmlns="http://www.w3.org/2000/svg">
<path d="M11.0283 22.1778V12.3092C11.0283 12.3092 12.3048 9.90564 16.3686 9.98239C16.6756 9.98643 16.922 10.2409 16.922 10.5479V19.7218C16.922 20.0328 16.6716 20.2833 16.3605 20.2873C15.1446 20.2873 12.2967 20.4933 11.2263 22.2344C11.1697 22.3273 11.0283 22.2909 11.0283 22.1819V22.1778Z" fill="#75519E"/>
<path d="M12.6119 22.3555C12.6119 22.3555 12.6401 22.3313 12.6603 22.3151C12.6846 22.299 12.7088 22.2828 12.7209 22.2747C12.8058 22.2222 12.8906 22.1657 12.9754 22.1172C13.0522 22.0728 13.1289 22.0324 13.2057 21.996C13.2259 21.9839 13.3551 21.9314 13.4036 21.9071C13.444 21.891 13.4844 21.8748 13.4965 21.8708C13.5531 21.8506 13.6056 21.8304 13.6622 21.8142C13.747 21.786 13.8278 21.7617 13.9126 21.7375C14.1065 21.6809 14.3044 21.6325 14.5024 21.5921C14.6114 21.5678 14.7246 21.5476 14.8336 21.5315C14.8619 21.5274 14.9589 21.5113 15.0154 21.5032C15.072 21.4951 15.1528 21.487 15.1729 21.483C15.2618 21.4749 15.3467 21.4668 15.4355 21.4588C15.7425 21.4345 16.0495 21.4386 16.3565 21.4224C17.3907 21.3658 18.041 20.5862 18.0491 19.5844C18.0532 19.2128 18.0491 18.8411 18.0491 18.4735V11.8042C18.2794 11.8648 18.4692 11.9213 18.6106 11.9698C18.7884 12.0304 18.9015 12.192 18.9015 12.3778V22.3717C18.9015 22.6423 18.6551 22.8484 18.3884 22.7959C17.2856 22.5777 14.6155 22.1414 12.4624 22.4969C12.5068 22.4525 12.5553 22.4081 12.6038 22.3636L12.6119 22.3555Z" fill="#75519E"/>
<path d="M9.87322 22.1778V12.3092C9.87322 12.3092 8.59671 9.90564 4.53291 9.98239C4.22591 9.98643 3.97949 10.2409 3.97949 10.5479V19.7218C3.97949 20.0328 4.22995 20.2833 4.54099 20.2873C5.7569 20.2873 8.60479 20.4933 9.67528 22.2344C9.73183 22.3273 9.87322 22.2909 9.87322 22.1819V22.1778Z" fill="#75519E"/>
<path d="M8.2896 22.3555C8.2896 22.3555 8.26132 22.3313 8.24113 22.3151C8.21689 22.299 8.19265 22.2828 8.18053 22.2747C8.0957 22.2222 8.01087 22.1657 7.92604 22.1172C7.84929 22.0728 7.77254 22.0324 7.69578 21.996C7.67559 21.9839 7.54632 21.9314 7.49785 21.9071C7.45745 21.891 7.41705 21.8748 7.40494 21.8708C7.34838 21.8506 7.29587 21.8304 7.23931 21.8142C7.15448 21.786 7.07369 21.7617 6.98886 21.7375C6.79496 21.6809 6.59702 21.6325 6.39908 21.5921C6.29002 21.5678 6.17691 21.5476 6.06784 21.5315C6.03956 21.5274 5.94261 21.5113 5.88606 21.5032C5.82951 21.4951 5.74872 21.487 5.72852 21.483C5.63965 21.4749 5.55482 21.4668 5.46595 21.4588C5.15894 21.4345 4.85193 21.4386 4.54493 21.4224C3.5108 21.3658 2.86043 20.5862 2.85235 19.5844C2.84831 19.2128 2.85235 18.8411 2.85235 18.4735V11.8042C2.62209 11.8648 2.43223 11.9213 2.29085 11.9698C2.11311 12.0304 2 12.192 2 12.3778V22.3717C2 22.6423 2.24641 22.8484 2.51302 22.7959C3.61583 22.5777 6.28598 22.1414 8.43906 22.4969C8.39463 22.4525 8.34615 22.4081 8.29768 22.3636L8.2896 22.3555Z" fill="#75519E"/>
<path d="M10.4509 9.65518C12.3428 9.65518 13.8765 8.12151 13.8765 6.22963C13.8765 4.33775 12.3428 2.80408 10.4509 2.80408C8.55906 2.80408 7.02539 4.33775 7.02539 6.22963C7.02539 8.12151 8.55906 9.65518 10.4509 9.65518Z" fill="url(#paint0_linear_55_2131)"/>
<path d="M21.6809 7.95044C21.0346 7.81713 20.5498 7.33642 20.4205 6.69009C20.368 6.42752 19.9439 6.42752 19.8914 6.69009C19.7581 7.33642 19.2773 7.82117 18.631 7.95044C18.3684 8.00295 18.3684 8.42711 18.631 8.47962C19.2773 8.61293 19.7621 9.09363 19.8914 9.73996C19.9196 9.87327 20.0125 9.93386 20.1135 9.9379C20.2428 9.95406 20.3923 9.87731 20.4205 9.73996C20.5538 9.09363 21.0346 8.60889 21.6809 8.47962C21.9435 8.42711 21.9435 8.00295 21.6809 7.95044Z" fill="url(#paint1_linear_55_2131)"/>
<path d="M18.1907 5.94683C17.7181 5.84988 17.3666 5.49844 17.2737 5.02985C17.2333 4.83999 16.9263 4.83999 16.8899 5.02985C16.793 5.50247 16.4416 5.85392 15.973 5.94683C15.7831 5.98722 15.7831 6.29423 15.973 6.33059C16.4456 6.42753 16.797 6.77898 16.8899 7.24757C16.9101 7.34452 16.9788 7.38895 17.0515 7.38895C17.1444 7.40107 17.2535 7.34452 17.2737 7.24757C17.3707 6.77494 17.7221 6.42349 18.1907 6.33059C18.3805 6.29019 18.3805 5.98318 18.1907 5.94683Z" fill="url(#paint2_linear_55_2131)"/>
<defs>
<linearGradient id="paint0_linear_55_2131" x1="7.02539" y1="6.22963" x2="13.8765" y2="6.22963" gradientUnits="userSpaceOnUse">
<stop stop-color="#41D5E7"/>
<stop offset="0.18" stop-color="#2ECDE4"/>
<stop offset="0.49" stop-color="#16C3E0"/>
<stop offset="0.77" stop-color="#07BDDD"/>
<stop offset="1" stop-color="#02BBDD"/>
</linearGradient>
<linearGradient id="paint1_linear_55_2131" x1="18.429" y1="8.21705" x2="21.8748" y2="8.21705" gradientUnits="userSpaceOnUse">
<stop stop-color="#FEC839"/>
<stop offset="1" stop-color="#F19139"/>
</linearGradient>
<linearGradient id="paint2_linear_55_2131" x1="15.8275" y1="6.14073" x2="18.3361" y2="6.14073" gradientUnits="userSpaceOnUse">
<stop stop-color="#FEC839"/>
<stop offset="1" stop-color="#F19139"/>
</linearGradient>
</defs>
</svg>
