<svg width="24" height="24" viewBox="0 0 24 24" fill="none" xmlns="http://www.w3.org/2000/svg">
<path d="M12.8253 9.69354C14.2416 8.2772 14.2416 5.98086 12.8253 4.56451C11.4089 3.14817 9.11257 3.14817 7.69623 4.56451C6.27989 5.98086 6.27989 8.2772 7.69623 9.69354C9.11257 11.1099 11.4089 11.1099 12.8253 9.69354Z" fill="url(#paint0_linear_101_752)"/>
<path d="M10.8708 20.3254C10.9163 20.3254 10.9466 20.2761 10.9238 20.2345C9.91198 18.5329 9.58606 16.5054 10.776 14.6901C11.4733 13.6252 12.6406 12.9316 13.8912 12.6853C13.948 12.6739 13.9632 12.6019 13.9177 12.5678C13.3303 12.1661 12.6709 11.8705 11.9546 11.7114C11.9433 11.7114 11.9319 11.7076 11.9205 11.7038C11.7955 11.6772 11.6742 11.6545 11.5454 11.6356C11.4809 11.628 11.4165 11.6204 11.3521 11.6128C11.2725 11.6052 11.1929 11.5901 11.1095 11.5825C11.083 11.5825 11.0148 11.5825 10.9352 11.5787C10.848 11.5787 10.7609 11.5711 10.6737 11.5711C10.6244 11.5711 10.4653 11.5711 10.2758 11.5711C10.0901 11.5711 9.93093 11.5711 9.87787 11.5711C9.79071 11.5711 9.70354 11.5749 9.61638 11.5787C9.53301 11.5787 9.46858 11.5787 9.44205 11.5825C9.35868 11.5863 9.27909 11.6015 9.19951 11.6128C9.13508 11.6204 9.07066 11.6242 9.00623 11.6356C8.88117 11.6545 8.75611 11.6772 8.63105 11.7038C8.61968 11.7038 8.60831 11.7076 8.59694 11.7114C5.92897 12.3026 4 14.7735 4 17.5892V18.8209C4 19.6508 4.67078 20.3216 5.50073 20.3216H10.8708V20.3254Z" fill="url(#paint1_linear_101_752)"/>
<path d="M20.436 16.4826C20.2427 15.9976 19.8827 15.5807 19.4241 15.323C18.9314 15.0463 18.3554 14.963 17.8059 15.0767C17.5255 15.1335 17.245 15.251 17.0063 15.4102C16.8812 15.4935 16.7599 15.5921 16.6538 15.6982C16.6121 15.7399 16.5666 15.8157 16.5174 15.8801C16.4567 15.8043 16.3999 15.7133 16.3544 15.6716C16.2332 15.558 16.1005 15.4556 15.9603 15.3685C15.6723 15.1904 15.3426 15.0804 15.0053 15.0426C14.3572 14.9705 13.7054 15.179 13.2165 15.6072C12.2653 16.4372 12.2805 17.737 12.8679 18.7679C13.4894 19.8555 14.4975 20.712 15.4979 21.4396C15.839 21.6897 16.3127 22.1445 16.7637 21.955C17.1654 21.7883 17.552 21.4396 17.8931 21.1743C18.9731 20.3406 20.1555 19.2795 20.5269 17.9152C20.6179 17.4225 20.6254 16.9564 20.436 16.4826Z" fill="#75519E"/>
<path d="M18.0106 11.8288C17.931 11.6356 17.7907 11.4688 17.6051 11.3665C17.408 11.2566 17.1768 11.2225 16.957 11.268C16.8433 11.2907 16.7334 11.3362 16.6387 11.4006C16.5894 11.4347 16.5401 11.4726 16.4985 11.5143C16.4833 11.5294 16.4643 11.5598 16.4454 11.5863C16.4227 11.556 16.3999 11.5219 16.381 11.5029C16.3317 11.4574 16.2786 11.4158 16.2256 11.3816C16.1119 11.3096 15.9793 11.2642 15.8428 11.249C15.5851 11.2187 15.3236 11.3021 15.1266 11.4764C14.7476 11.8099 14.7514 12.3291 14.9863 12.7384C15.2327 13.1742 15.6382 13.5153 16.0361 13.8071C16.1725 13.9056 16.362 14.0875 16.5439 14.0117C16.7031 13.9435 16.8585 13.8071 16.9949 13.701C17.4269 13.3675 17.9007 12.943 18.0485 12.3973C18.0826 12.2002 18.0901 12.0145 18.0143 11.825L18.0106 11.8288Z" fill="url(#paint2_linear_101_752)"/>
<defs>
<linearGradient id="paint0_linear_101_752" x1="6.63059" y1="7.12868" x2="13.8879" y2="7.12868" gradientUnits="userSpaceOnUse">
<stop stop-color="#41D5E7"/>
<stop offset="0.18" stop-color="#2ECDE4"/>
<stop offset="0.49" stop-color="#16C3E0"/>
<stop offset="0.77" stop-color="#07BDDD"/>
<stop offset="1" stop-color="#02BBDD"/>
</linearGradient>
<linearGradient id="paint1_linear_101_752" x1="4" y1="15.9521" x2="13.9405" y2="15.9521" gradientUnits="userSpaceOnUse">
<stop stop-color="#41D5E7"/>
<stop offset="0.18" stop-color="#2ECDE4"/>
<stop offset="0.49" stop-color="#16C3E0"/>
<stop offset="0.77" stop-color="#07BDDD"/>
<stop offset="1" stop-color="#02BBDD"/>
</linearGradient>
<linearGradient id="paint2_linear_101_752" x1="14.8196" y1="12.6398" x2="18.0712" y2="12.6398" gradientUnits="userSpaceOnUse">
<stop stop-color="#FEC839"/>
<stop offset="0.14" stop-color="#FBBB39"/>
<stop offset="0.45" stop-color="#F5A439"/>
<stop offset="0.75" stop-color="#F29539"/>
<stop offset="1" stop-color="#F19139"/>
</linearGradient>
</defs>
</svg>
