<svg width="60" height="60" viewBox="0 0 60 60" fill="none" xmlns="http://www.w3.org/2000/svg">
<rect width="60" height="60" rx="11" fill="#D8CFFF"/>
<path d="M23.1775 21.0092H35.2111C37.7886 21.0092 37.7886 17.0056 35.2111 17.0056H33.7927C33.7927 16.0066 33.1521 15 31.8633 15H26.4719C25.1831 15 24.5349 16.0066 24.5425 17.0056H23.1851C20.6076 17.0056 20.6076 21.0092 23.1851 21.0092H23.1775Z" fill="#75519E"/>
<path d="M45.0939 35.369L44.2322 34.5073C43.8433 34.1183 43.2027 34.1183 42.8138 34.5073L42.1427 35.1783L36.5987 40.7223C36.4996 40.8215 36.492 40.9892 36.5987 41.096C37.2393 41.7366 37.8799 42.3772 38.5204 43.0177C38.6196 43.1169 38.7873 43.1169 38.8941 43.0177L44.3237 37.5805L45.1016 36.8027C45.4905 36.4137 45.4905 35.7732 45.1016 35.3842L45.0939 35.369Z" fill="url(#paint0_linear_1_5171)"/>
<path d="M37.9182 43.971L34.8069 44.9928C34.6849 45.031 34.5781 44.9166 34.6162 44.8022L35.6457 41.6985C35.6839 41.5917 35.8211 41.5612 35.8974 41.6375L37.9793 43.7193C38.0631 43.8032 38.025 43.9328 37.9182 43.971Z" fill="url(#paint1_linear_1_5171)"/>
<path d="M39.4056 19.1787C39.2683 19.1635 39.1463 19.2779 39.1387 19.4228C39.0014 21.497 37.2779 23.1366 35.1656 23.1366H23.2387C21.1264 23.1366 19.4029 21.497 19.2657 19.4228C19.258 19.2855 19.136 19.1635 18.9988 19.1787C17.7786 19.3236 16.833 20.3607 16.833 21.6266V42.2851C16.833 43.7874 18.0531 44.9999 19.5478 44.9999H31.3908C31.8712 44.9999 32.2983 44.6949 32.4584 44.2449L33.7014 40.6989C33.77 40.493 33.8844 40.31 34.037 40.1575L34.5403 39.6542L41.2815 32.9129C41.4645 32.7299 41.5637 32.4859 41.5637 32.2342V21.6266C41.5637 20.3684 40.6257 19.3389 39.4056 19.1864V19.1787ZM26.6856 38.8992C25.6638 39.9363 24.6419 40.9658 23.6276 42.0029C23.3302 42.3003 22.8117 42.3003 22.5219 42.0029C21.9195 41.3852 21.317 40.7752 20.7146 40.1575C20.0054 39.4406 21.1111 38.3273 21.8203 39.0517C22.2397 39.4788 22.6592 39.9058 23.0786 40.3329C23.9098 39.4864 24.7487 38.6399 25.5799 37.7935C26.2891 37.0766 27.3948 38.1824 26.6856 38.8992ZM26.6856 33.0807C25.6638 34.1178 24.6419 35.1473 23.6276 36.1844C23.3302 36.4818 22.8117 36.4818 22.5219 36.1844C21.9195 35.5667 21.317 34.9566 20.7146 34.3389C20.0054 33.6221 21.1111 32.5087 21.8203 33.2332C22.2397 33.6602 22.6592 34.0873 23.0786 34.5143C23.9098 33.6679 24.7487 32.8214 25.5799 31.9749C26.2891 31.2581 27.3948 32.3638 26.6856 33.0807ZM26.6856 27.2927C25.6638 28.3298 24.6419 29.3593 23.6276 30.3964C23.3302 30.6938 22.8117 30.6938 22.5219 30.3964C21.9195 29.7787 21.317 29.1686 20.7146 28.5509C20.0054 27.8341 21.1111 26.7207 21.8203 27.4452C22.2397 27.8722 22.6592 28.2993 23.0786 28.7263C23.9098 27.8798 24.7487 27.0334 25.5799 26.1869C26.2891 25.4701 27.3948 26.5758 26.6856 27.2927ZM31.7644 40.6989H29.042C28.5997 40.6989 28.2337 40.3405 28.2337 39.8906C28.2337 39.4407 28.5921 39.0822 29.042 39.0822H31.7644C32.2067 39.0822 32.5728 39.4407 32.5728 39.8906C32.5728 40.3405 32.2144 40.6989 31.7644 40.6989ZM37.8956 34.0949C37.8956 34.5296 37.5448 34.8804 37.1102 34.8804H29.0191C28.5845 34.8804 28.2337 34.5296 28.2337 34.0949V34.0492C28.2337 33.6145 28.5845 33.2637 29.0191 33.2637H37.1102C37.5448 33.2637 37.8956 33.6145 37.8956 34.0492V34.0949ZM37.8956 28.3069C37.8956 28.7416 37.5448 29.0924 37.1102 29.0924H29.0191C28.5845 29.0924 28.2337 28.7416 28.2337 28.3069V28.2611C28.2337 27.8265 28.5845 27.4757 29.0191 27.4757H37.1102C37.5448 27.4757 37.8956 27.8265 37.8956 28.2611V28.3069Z" fill="#75519E"/>
<defs>
<linearGradient id="paint0_linear_1_5171" x1="36.5148" y1="38.6481" x2="45.3837" y2="38.6481" gradientUnits="userSpaceOnUse">
<stop stop-color="#FEC839"/>
<stop offset="0.08" stop-color="#F9B639"/>
<stop offset="0.18" stop-color="#F5A539"/>
<stop offset="0.31" stop-color="#F39939"/>
<stop offset="0.49" stop-color="#F19239"/>
<stop offset="1" stop-color="#F19139"/>
</linearGradient>
<linearGradient id="paint1_linear_1_5171" x1="34.6162" y1="43.2923" x2="38.025" y2="43.2923" gradientUnits="userSpaceOnUse">
<stop stop-color="#FEC839"/>
<stop offset="0.08" stop-color="#F9B639"/>
<stop offset="0.18" stop-color="#F5A539"/>
<stop offset="0.31" stop-color="#F39939"/>
<stop offset="0.49" stop-color="#F19239"/>
<stop offset="1" stop-color="#F19139"/>
</linearGradient>
</defs>
</svg>
