<svg width="60" height="60" viewBox="0 0 60 60" fill="none" xmlns="http://www.w3.org/2000/svg">
<rect width="60" height="60" rx="11" fill="#D8CFFF"/>
<path d="M22.7995 22.3079H34.4301C36.9213 22.3079 36.9213 18.4384 34.4301 18.4384H33.0592C33.0592 17.4729 32.44 16.5 31.1944 16.5H25.9835C24.7379 16.5 24.1114 17.4729 24.1188 18.4384H22.8069C20.3157 18.4384 20.3157 22.3079 22.8069 22.3079H22.7995Z" fill="#75519E"/>
<path d="M38.4835 20.5388C38.3508 20.5241 38.2329 20.6346 38.2255 20.7747C38.0928 22.7794 36.4271 24.3641 34.3855 24.3641H22.8582C20.8165 24.3641 19.1508 22.7794 19.0182 20.7747C19.0108 20.642 18.8929 20.5241 18.7602 20.5388C17.5809 20.6788 16.667 21.6812 16.667 22.9047V42.8712C16.667 43.0555 16.6891 43.2397 16.726 43.4166C16.925 44.5959 17.9421 45.4951 19.1729 45.4951H36.6261L34.275 43.0997C33.3021 42.1047 33.0294 40.7043 33.5527 39.444C34.0981 38.1394 35.3879 37.2623 36.7588 37.2623C37.6433 37.2623 38.4909 37.6235 39.1395 38.2868L39.906 39.0681L40.5472 38.4121V33.2454C40.5472 33.2454 40.5619 33.1865 40.5619 33.157V22.9047C40.5619 21.6886 39.6554 20.6936 38.4761 20.5462L38.4835 20.5388ZM26.1896 39.5987C25.202 40.6011 24.2143 41.5961 23.2341 42.5985C22.9466 42.886 22.4454 42.886 22.1653 42.5985L20.4185 40.8149C19.7331 40.122 20.8018 39.046 21.4873 39.7461C21.8926 40.1589 22.298 40.5716 22.7034 40.9844C23.5068 40.1663 24.3175 39.3481 25.1209 38.53C25.8063 37.8372 26.875 38.9059 26.1896 39.5987ZM26.1896 33.9751C25.202 34.9775 24.2143 35.9725 23.2341 36.9749C22.9466 37.2623 22.4454 37.2623 22.1653 36.9749L20.4185 35.1912C19.7331 34.4984 20.8018 33.4223 21.4873 34.1225C21.8926 34.5353 22.298 34.948 22.7034 35.3607C23.5068 34.5426 24.3175 33.7245 25.1209 32.9064C25.8063 32.2136 26.875 33.2823 26.1896 33.9751ZM26.1896 28.3809C25.202 29.3833 24.2143 30.3783 23.2341 31.3807C22.9466 31.6682 22.4454 31.6682 22.1653 31.3807L20.4185 29.5971C19.7331 28.9042 20.8018 27.8282 21.4873 28.5283C21.8926 28.9411 22.298 29.3538 22.7034 29.7666C23.5068 28.9485 24.3175 28.1303 25.1209 27.3122C25.8063 26.6194 26.875 27.6881 26.1896 28.3809ZM31.0983 41.3382H28.4671C28.0396 41.3382 27.6858 40.9918 27.6858 40.5569C27.6858 40.122 28.0322 39.7756 28.4671 39.7756H31.0983C31.5258 39.7756 31.8796 40.122 31.8796 40.5569C31.8796 40.9918 31.5332 41.3382 31.0983 41.3382ZM37.0241 34.9554C37.0241 35.3755 36.6851 35.7145 36.265 35.7145H28.4449C28.0248 35.7145 27.6858 35.3755 27.6858 34.9554V34.9111C27.6858 34.491 28.0248 34.152 28.4449 34.152H36.265C36.6851 34.152 37.0241 34.491 37.0241 34.9111V34.9554ZM37.0241 29.3612C37.0241 29.7813 36.6851 30.1204 36.265 30.1204H28.4449C28.0248 30.1204 27.6858 29.7813 27.6858 29.3612V29.317C27.6858 28.8969 28.0248 28.5578 28.4449 28.5578H36.265C36.6851 28.5578 37.0241 28.8969 37.0241 29.317V29.3612Z" fill="#75519E"/>
<path d="M46.2663 39.4442C44.468 41.2647 42.6696 43.0926 40.8712 44.9131C40.3479 45.4438 39.4413 45.4438 38.918 44.9131C37.8567 43.8296 36.788 42.7462 35.7266 41.6627C34.481 40.395 36.4342 38.4419 37.6798 39.7096C38.4168 40.4614 39.1612 41.2205 39.8983 41.9723C41.3724 40.4761 42.8465 38.9873 44.3132 37.4911C45.5661 36.2234 47.5119 38.1765 46.2663 39.4442Z" fill="url(#paint0_linear_1_5186)"/>
<defs>
<linearGradient id="paint0_linear_1_5186" x1="35.3286" y1="41.1984" x2="46.6717" y2="41.1984" gradientUnits="userSpaceOnUse">
<stop stop-color="#FEC839"/>
<stop offset="0.08" stop-color="#F9B639"/>
<stop offset="0.18" stop-color="#F5A539"/>
<stop offset="0.31" stop-color="#F39939"/>
<stop offset="0.49" stop-color="#F19239"/>
<stop offset="1" stop-color="#F19139"/>
</linearGradient>
</defs>
</svg>
