<svg width="36" height="36" viewBox="0 0 36 36" fill="none" xmlns="http://www.w3.org/2000/svg">
<rect width="36" height="36" rx="8" fill="#FCF8EE"/>
<g clip-path="url(#clip0_83_923)">
<path d="M25.4211 23.2714C25.4391 23.238 25.452 23.2046 25.4674 23.1711C25.4829 23.1377 25.4906 23.1017 25.5009 23.0683C25.5111 23.0349 25.5189 23.004 25.5266 22.9731C25.5343 22.9423 25.542 22.8934 25.5471 22.8523V22.7726C25.5497 22.7255 25.5497 22.6783 25.5471 22.6311C25.5484 22.6132 25.5484 22.5951 25.5471 22.5771C25.5439 22.5219 25.5371 22.4669 25.5266 22.4126C25.5266 22.4126 25.5266 22.4126 25.5266 22.3971C25.4898 22.1909 25.3951 21.9994 25.2534 21.845C25.1118 21.6907 24.9292 21.5798 24.7269 21.5254C24.4519 21.361 24.2208 21.1325 24.0531 20.8594C23.4283 19.9209 23.1943 18.6403 23.1069 17.7326V15.6857C23.1061 14.5407 22.7206 13.4292 22.0122 12.5296C21.3039 11.6301 20.3137 10.9947 19.2009 10.7254V10.1597C19.2009 8.61686 16.7991 8.61686 16.7991 10.1597V10.7254C15.6863 10.9947 14.6961 11.6301 13.9878 12.5296C13.2794 13.4292 12.8939 14.5407 12.8931 15.6857V16.8249C12.8931 17.4574 12.7877 19.512 11.8954 20.8594C11.7214 21.1577 11.4652 21.3996 11.1574 21.5563H11.1806C10.9305 21.655 10.7218 21.8365 10.5894 22.0705C10.457 22.3045 10.4088 22.5768 10.4529 22.842C10.4515 22.8565 10.4515 22.8712 10.4529 22.8857C10.4587 22.9274 10.4673 22.9686 10.4786 23.0091C10.4848 23.0395 10.4925 23.0696 10.5017 23.0991C10.5017 23.1326 10.5249 23.166 10.5377 23.1969C10.5505 23.2323 10.566 23.2667 10.584 23.2997C10.5975 23.3274 10.613 23.354 10.6303 23.3794C10.6511 23.4144 10.6743 23.4479 10.6997 23.4797C10.7172 23.5031 10.7361 23.5255 10.7563 23.5466C10.7853 23.5777 10.8162 23.6069 10.8489 23.634C10.872 23.652 10.8926 23.6726 10.9157 23.688C10.9547 23.7141 10.9951 23.7381 11.0366 23.76L11.1111 23.7986C11.1603 23.8191 11.211 23.8354 11.2629 23.8474L11.3374 23.868C11.422 23.8858 11.5082 23.8944 11.5946 23.8937H24.4029C24.4893 23.8945 24.5755 23.8859 24.66 23.868L24.7371 23.8474C24.7887 23.8334 24.8394 23.8162 24.8889 23.796C24.9159 23.7849 24.9417 23.7711 24.966 23.7549C25.0071 23.7348 25.0467 23.7116 25.0843 23.6854C25.11 23.6674 25.1306 23.6469 25.1537 23.6289C25.1769 23.6109 25.218 23.5723 25.2463 23.5414C25.2746 23.5106 25.2849 23.4926 25.3029 23.4694C25.3277 23.4381 25.3509 23.4055 25.3723 23.3717L25.4211 23.2714Z" fill="#02BBDD"/>
<path d="M17.9563 27C18.5485 26.9993 19.1162 26.7636 19.5347 26.3446C19.9532 25.9256 20.1883 25.3576 20.1883 24.7654H15.7217C15.7217 25.3581 15.9571 25.9264 16.3762 26.3455C16.7953 26.7646 17.3636 27 17.9563 27Z" fill="#75519E"/>
<path d="M24.7937 10.4194C23.8423 9.648 22.4794 10.9954 23.4334 11.7771C23.9402 12.168 24.3336 12.6868 24.5732 13.2803C24.8127 13.8737 24.8897 14.5203 24.7963 15.1534C24.6497 16.3774 26.5706 16.3671 26.7171 15.1534C26.8191 14.2664 26.6964 13.3679 26.3603 12.5407C26.0242 11.7134 25.4855 10.984 24.7937 10.4194Z" fill="#F3BD2E"/>
<path d="M11.2037 15.1534C11.1103 14.5203 11.1873 13.8737 11.4268 13.2803C11.6664 12.6868 12.0598 12.168 12.5666 11.7771C13.5231 11.0057 12.1577 9.64543 11.2063 10.4194C10.5145 10.984 9.97581 11.7134 9.6397 12.5407C9.3036 13.3679 9.18089 14.2664 9.28286 15.1534C9.42943 16.3646 11.3503 16.38 11.2037 15.1534Z" fill="#F3BD2E"/>
</g>
<defs>
<clipPath id="clip0_83_923">
<rect width="18" height="18" fill="white" transform="translate(9 9)"/>
</clipPath>
</defs>
</svg>
