<svg width="36" height="36" viewBox="0 0 36 36" fill="none" xmlns="http://www.w3.org/2000/svg">
<rect width="36" height="36" rx="8" fill="#EDE9FF"/>
<path d="M25.9718 23.8566C25.9918 23.8194 26.0061 23.7823 26.0233 23.7451C26.0404 23.708 26.049 23.668 26.0604 23.6308C26.0718 23.5937 26.0804 23.5594 26.089 23.5251C26.0976 23.4908 26.1061 23.4365 26.1118 23.3908V23.3022C26.1147 23.2499 26.1147 23.1974 26.1118 23.1451C26.1133 23.1251 26.1133 23.105 26.1118 23.085C26.1083 23.0236 26.1006 22.9626 26.089 22.9022C26.089 22.9022 26.089 22.9022 26.089 22.885C26.0481 22.6558 25.9428 22.443 25.7855 22.2715C25.6281 22.0999 25.4251 21.9767 25.2003 21.9163C24.8947 21.7335 24.6379 21.4796 24.4516 21.1762C23.7572 20.1332 23.4972 18.7101 23.4 17.7014V15.4268C23.3992 14.1544 22.9708 12.9192 22.1836 11.9195C21.3964 10.9199 20.2961 10.2138 19.0594 9.91456V9.2859C19.0594 7.57137 16.3904 7.57137 16.3904 9.2859V9.91456C15.1537 10.2138 14.0534 10.9199 13.2662 11.9195C12.4791 12.9192 12.0506 14.1544 12.0498 15.4268V16.6927C12.0498 17.3956 11.9326 19.6788 10.9411 21.1762C10.7477 21.5077 10.463 21.7765 10.121 21.9506H10.1467C9.86877 22.0603 9.6369 22.262 9.48973 22.522C9.34256 22.782 9.289 23.0846 9.33799 23.3794C9.33647 23.3955 9.33647 23.4118 9.33799 23.428C9.34448 23.4743 9.35402 23.5201 9.36656 23.5651C9.37345 23.5989 9.38203 23.6322 9.39228 23.6651C9.39228 23.7023 9.418 23.7394 9.43229 23.7737C9.44649 23.8131 9.46369 23.8513 9.48372 23.888C9.49871 23.9187 9.5159 23.9484 9.53516 23.9766C9.55824 24.0155 9.58402 24.0527 9.61231 24.088C9.63171 24.1141 9.65271 24.1389 9.67518 24.1623C9.70737 24.1969 9.74173 24.2293 9.77805 24.2595C9.80377 24.2795 9.82663 24.3024 9.85235 24.3195C9.89571 24.3485 9.94054 24.3752 9.98665 24.3995L10.0695 24.4424C10.1241 24.4652 10.1805 24.4833 10.2381 24.4967L10.321 24.5195C10.4149 24.5393 10.5107 24.5489 10.6067 24.5481H24.8402C24.9362 24.549 25.0321 24.5394 25.126 24.5195L25.2117 24.4967C25.269 24.4811 25.3253 24.462 25.3803 24.4395C25.4103 24.4271 25.439 24.4118 25.466 24.3938C25.5118 24.3715 25.5557 24.3457 25.5975 24.3167C25.6261 24.2966 25.6489 24.2738 25.6746 24.2538C25.7004 24.2338 25.7461 24.1909 25.7775 24.1566C25.8089 24.1223 25.8204 24.1023 25.8404 24.0766C25.868 24.0418 25.8937 24.0056 25.9175 23.968L25.9718 23.8566Z" fill="#75519E"/>
<path d="M17.6776 27.9999C18.3356 27.9992 18.9665 27.7372 19.4316 27.2716C19.8967 26.806 20.1579 26.1748 20.1579 25.5167H15.1943C15.1943 26.1753 15.456 26.8069 15.9217 27.2726C16.3873 27.7383 17.019 27.9999 17.6776 27.9999Z" fill="#02BBDD"/>
<path d="M25.2753 9.57443C24.218 8.71716 22.7035 10.2145 23.7636 11.0832C24.3268 11.5175 24.764 12.0941 25.0302 12.7536C25.2964 13.4131 25.382 14.1316 25.2781 14.8352C25.1153 16.1954 27.2499 16.184 27.4127 14.8352C27.5261 13.8494 27.3897 12.851 27.0162 11.9317C26.6427 11.0124 26.044 10.2018 25.2753 9.57443Z" fill="#F3BD2E"/>
<path d="M10.1733 14.8352C10.0695 14.1317 10.1551 13.4132 10.4213 12.7537C10.6875 12.0942 11.1247 11.5176 11.6878 11.0833C12.7508 10.226 11.2335 8.71436 10.1762 9.57448C9.40743 10.2019 8.80877 11.0125 8.43527 11.9318C8.06177 12.851 7.9254 13.8495 8.03872 14.8352C8.2016 16.1812 10.3362 16.1983 10.1733 14.8352Z" fill="#F3BD2E"/>
</svg>
