<svg width="24" height="24" viewBox="0 0 24 24" fill="none" xmlns="http://www.w3.org/2000/svg">
<path d="M6.96779 5.74777H14.4813C16.0881 5.74777 16.0926 3.25225 14.4813 3.25225H13.5971C13.5971 2.62837 13.1976 2 12.3897 2H9.02346C8.22004 2 7.81609 2.62837 7.81609 3.25225H6.96779C5.36096 3.25225 5.35647 5.74777 6.96779 5.74777Z" fill="url(#paint0_linear_149_868)"/>
<path d="M21.0522 16.7129L17.1518 20.905C17.0037 21.0621 16.8241 21.1833 16.6222 21.2551L14.6473 21.9732C14.3107 22.0944 13.9785 21.7847 14.0728 21.4391L14.6473 19.4194C14.7056 19.2129 14.8133 19.0244 14.957 18.8673L18.8573 14.6752C19.0369 14.4822 19.3421 14.4687 19.5396 14.6527L21.0252 16.0396C21.2182 16.2192 21.2317 16.5244 21.0477 16.7219L21.0522 16.7129Z" fill="#75519E"/>
<path d="M16.9363 4.58978C16.9363 5.95873 15.8232 7.07184 14.4498 7.07184H7.00361C5.63017 7.07184 4.52155 5.95873 4.51706 4.58978C3.67774 4.60325 3 5.28548 3 6.12929V19.1859C3 20.0387 3.69121 20.7254 4.5395 20.7254H12.3223C12.5422 20.7254 12.7397 20.5773 12.7981 20.3663L13.1886 18.9929C13.3053 18.5755 13.5207 18.194 13.8169 17.8753L17.7173 13.6832C17.852 13.5396 18.0046 13.4229 18.1706 13.3331C18.3367 13.2433 18.4354 13.0728 18.4354 12.8843V6.12929C18.4354 5.28997 17.7622 4.60774 16.9274 4.58978H16.9363ZM14.1132 15.667H7.33575C6.35729 15.667 6.35729 14.1455 7.33575 14.1455H7.48386V9.19483C7.48386 8.21637 9.00541 8.21637 9.00541 9.19483V14.1455H9.96592V11.044C9.96592 10.0656 11.4875 10.0656 11.4875 11.044V14.1455H12.439V13.0548C12.439 12.6553 12.7891 12.2783 13.1975 12.2963C13.6105 12.3142 13.9561 12.6284 13.9561 13.0548V14.1455H14.1087C15.0871 14.1455 15.0871 15.667 14.1087 15.667H14.1132Z" fill="url(#paint1_linear_149_868)"/>
<defs>
<linearGradient id="paint0_linear_149_868" x1="5.76043" y1="3.87164" x2="15.6887" y2="3.87164" gradientUnits="userSpaceOnUse">
<stop stop-color="#FFCC39"/>
<stop offset="0.61" stop-color="#F7AB39"/>
<stop offset="1" stop-color="#F19139"/>
</linearGradient>
<linearGradient id="paint1_linear_149_868" x1="3.00449" y1="12.6553" x2="18.4444" y2="12.6553" gradientUnits="userSpaceOnUse">
<stop stop-color="#41D5E7"/>
<stop offset="0.18" stop-color="#2ECDE4"/>
<stop offset="0.49" stop-color="#16C3E0"/>
<stop offset="0.77" stop-color="#07BDDD"/>
<stop offset="1" stop-color="#02BBDD"/>
</linearGradient>
</defs>
</svg>
