<svg width="60" height="60" viewBox="0 0 60 60" fill="none" xmlns="http://www.w3.org/2000/svg">
<rect width="60" height="60" rx="11" fill="#E1D8FF"/>
<path d="M35.9106 21.7284H34.9047V19.6052C34.9047 17.4649 31.583 17.4649 31.583 19.6052V21.7284H23.3728V19.6052C23.3728 17.4649 20.0511 17.4649 20.0511 19.6052V21.7284H19.0623C16.815 21.7284 15 23.5476 15 25.7907V38.8935C15 41.1365 16.8192 42.9515 19.058 42.9515H34.6222C34.558 42.8958 34.4938 42.8402 34.4295 42.776L32.0025 40.3489C30.7183 39.0647 30.6926 36.9886 31.9425 35.6274C32.5547 34.9597 33.4407 34.5787 34.3739 34.5787C35.3071 34.5787 36.1632 34.9382 36.7881 35.5632L36.8224 35.5975C37.2804 35.1394 37.777 34.6429 38.2735 34.1506C38.7786 33.6498 39.2794 33.1447 39.7503 32.6738C39.8958 32.5283 39.9729 32.3357 39.9729 32.1345V25.7907C39.9729 23.5476 38.1536 21.7327 35.9149 21.7327L35.9106 21.7284ZM22.5338 37.7121C22.5338 37.9946 22.3069 38.2215 22.0244 38.2215H18.844C18.5614 38.2215 18.3346 37.9946 18.3346 37.7121V34.5316C18.3346 34.2491 18.5614 34.0222 18.844 34.0222H22.0244C22.3069 34.0222 22.5338 34.2491 22.5338 34.5316V37.7121ZM22.5338 30.1183C22.5338 30.4008 22.3069 30.6277 22.0244 30.6277H18.844C18.5614 30.6277 18.3346 30.4008 18.3346 30.1183V26.9378C18.3346 26.6553 18.5614 26.4285 18.844 26.4285H22.0244C22.3069 26.4285 22.5338 26.6553 22.5338 26.9378V30.1183ZM29.5754 37.7121C29.5754 37.9946 29.3485 38.2215 29.066 38.2215H25.8855C25.603 38.2215 25.3761 37.9946 25.3761 37.7121V34.5316C25.3761 34.2491 25.603 34.0222 25.8855 34.0222H29.066C29.3485 34.0222 29.5754 34.2491 29.5754 34.5316V37.7121ZM29.5754 30.1183C29.5754 30.4008 29.3485 30.6277 29.066 30.6277H25.8855C25.603 30.6277 25.3761 30.4008 25.3761 30.1183V26.9378C25.3761 26.6553 25.603 26.4285 25.8855 26.4285H29.066C29.3485 26.4285 29.5754 26.6553 29.5754 26.9378V30.1183ZM36.6169 30.1183C36.6169 30.4008 36.39 30.6277 36.1075 30.6277H32.9271C32.6445 30.6277 32.4177 30.4008 32.4177 30.1183V26.9378C32.4177 26.6553 32.6445 26.4285 32.9271 26.4285H36.1075C36.39 26.4285 36.6169 26.6553 36.6169 26.9378V30.1183Z" fill="#75519E"/>
<path d="M44.61 32.601C44.075 32.1087 43.2402 32.0702 42.7095 32.601C41.2498 34.0692 38.2833 37.0143 36.8237 38.4825C36.3314 37.9903 35.8391 37.498 35.3469 37.0057C34.8503 36.5092 33.9343 36.4706 33.4463 37.0057C32.954 37.5408 32.9155 38.3755 33.4463 38.9063C34.2553 39.7153 35.0643 40.5244 35.8777 41.3377C36.3913 41.8513 37.2646 41.8513 37.7782 41.3377C39.3321 39.7795 42.3841 36.7403 43.938 35.1822C44.1649 34.9553 44.3874 34.7285 44.6143 34.5059C45.1109 34.005 45.1494 33.0933 44.6143 32.6053L44.61 32.601Z" fill="url(#paint0_linear_412_13936)"/>
<defs>
<linearGradient id="paint0_linear_412_13936" x1="33.0568" y1="36.9672" x2="44.9996" y2="36.9672" gradientUnits="userSpaceOnUse">
<stop stop-color="#FEC839"/>
<stop offset="0.08" stop-color="#F9B639"/>
<stop offset="0.18" stop-color="#F5A539"/>
<stop offset="0.31" stop-color="#F39939"/>
<stop offset="0.49" stop-color="#F19239"/>
<stop offset="1" stop-color="#F19139"/>
</linearGradient>
</defs>
</svg>
