<svg width="24" height="25" viewBox="0 0 24 25" fill="none" xmlns="http://www.w3.org/2000/svg">
<path d="M15.4156 4.97051L14.8284 4.18087C14.796 4.13633 14.796 4.07154 14.8284 4.027L15.4115 3.26571C15.4682 3.19282 15.4237 3.07134 15.3427 3.07134H12.3056C12.2894 2.92556 12.172 2.80408 12.0222 2.80408C11.8602 2.80408 11.7266 2.93771 11.7266 3.09968V7.3961C11.7266 7.55808 11.8602 7.69171 12.0222 7.69171C12.1841 7.69171 12.3178 7.55808 12.3178 7.3961V5.16083H15.3467C15.4277 5.16083 15.4723 5.0434 15.4196 4.97051H15.4156Z" fill="url(#paint0_linear_55_2049)"/>
<path d="M5.35695 16.7867V16.0983C5.35695 16.0376 5.3691 15.3289 5.3772 15.2682H2.48593C2.21462 15.2682 2 15.4869 2 15.7541V21.8849C2 22.1562 2.21867 22.3708 2.48593 22.3708H5.35291V16.7786L5.35695 16.7867Z" fill="url(#paint1_linear_55_2049)"/>
<path d="M21.5182 15.2682H18.627C18.6351 15.3411 18.6472 15.9323 18.6472 16.0052V16.3494V22.3749H21.5142C21.7855 22.3749 22.0001 22.1562 22.0001 21.889V15.7582C22.0001 15.4869 21.7814 15.2722 21.5142 15.2722L21.5182 15.2682Z" fill="url(#paint2_linear_55_2049)"/>
<path d="M5.96862 13.7617C5.84309 13.7617 5.72161 13.7171 5.62038 13.628C5.40981 13.4377 5.39361 13.1097 5.58393 12.8991L10.346 7.65922C10.7834 7.17734 11.4029 6.90198 12.0427 6.90198C12.6825 6.90198 13.3021 7.17734 13.7394 7.65922L18.4772 12.8748C18.6676 13.0854 18.6514 13.4134 18.4408 13.6037C18.2302 13.7941 17.9063 13.7819 17.7119 13.5673L12.9741 8.35571C12.4882 7.82524 11.5932 7.82524 11.1073 8.35571L6.34522 13.5956C6.24398 13.709 6.10225 13.7657 5.96458 13.7657L5.96862 13.7617Z" fill="url(#paint3_linear_55_2049)"/>
<path d="M17.5173 14.9037C17.5173 14.7295 17.4484 14.5595 17.3269 14.4258L12.5891 9.21425C12.2854 8.8822 11.7873 8.8822 11.4836 9.21425L6.7256 14.4542C6.62031 14.5716 6.55957 14.7174 6.55957 14.8713V16.2035V21.9658C6.55957 22.1926 6.7256 22.3789 6.92402 22.3789H10.3579V17.5601C10.3579 17.2888 10.5766 17.0701 10.8479 17.0701H13.2249C13.4962 17.0701 13.7149 17.2888 13.7149 17.5601V22.3789H17.1609C17.3593 22.3789 17.5173 22.2007 17.5173 21.978V14.9077V14.9037Z" fill="#75519E"/>
<mask id="mask0_55_2049" style="mask-type:luminance" maskUnits="userSpaceOnUse" x="6" y="8" width="12" height="15">
<path d="M17.5173 14.9037C17.5173 14.7295 17.4484 14.5595 17.3269 14.4258L12.5891 9.21425C12.2854 8.8822 11.7873 8.8822 11.4836 9.21425L6.7256 14.4542C6.62031 14.5716 6.55957 14.7174 6.55957 14.8713V16.2035V21.9658C6.55957 22.1926 6.7256 22.3789 6.92402 22.3789H10.3579V17.5601C10.3579 17.2888 10.5766 17.0701 10.8479 17.0701H13.2249C13.4962 17.0701 13.7149 17.2888 13.7149 17.5601V22.3789H17.1609C17.3593 22.3789 17.5173 22.2007 17.5173 21.978V14.9077V14.9037Z" fill="white"/>
</mask>
<g mask="url(#mask0_55_2049)">
<path d="M6.7376 8.8822H6.56348V22.3789H6.7376V8.8822Z" fill="#75519E"/>
<path d="M6.91192 8.8822H6.73779V22.3789H6.91192V8.8822Z" fill="#75519E"/>
<path d="M7.08623 8.8822H6.91211V22.3789H7.08623V8.8822Z" fill="#75519E"/>
<path d="M7.26006 8.8822H7.08594V22.3789H7.26006V8.8822Z" fill="#75519E"/>
<path d="M7.43047 8.8822H7.25635V22.3789H7.43047V8.8822Z" fill="#75519E"/>
<path d="M7.6043 8.8822H7.43018V22.3789H7.6043V8.8822Z" fill="#75519E"/>
<path d="M7.77862 8.8822H7.60449V22.3789H7.77862V8.8822Z" fill="#75519E"/>
<path d="M7.95244 8.8822H7.77832V22.3789H7.95244V8.8822Z" fill="#75519E"/>
<path d="M8.12676 8.8822H7.95264V22.3789H8.12676V8.8822Z" fill="#75519E"/>
<path d="M8.30108 8.8822H8.12695V22.3789H8.30108V8.8822Z" fill="#75519E"/>
<path d="M8.47491 8.8822H8.30078V22.3789H8.47491V8.8822Z" fill="#75519E"/>
<path d="M8.64922 8.8822H8.4751V22.3789H8.64922V8.8822Z" fill="#75519E"/>
<path d="M8.82305 8.8822H8.64893V22.3789H8.82305V8.8822Z" fill="#75519E"/>
<path d="M8.99737 8.8822H8.82324V22.3789H8.99737V8.8822Z" fill="#75519E"/>
<path d="M9.17168 8.8822H8.99756V22.3789H9.17168V8.8822Z" fill="#75519E"/>
<path d="M9.34551 8.8822H9.17139V22.3789H9.34551V8.8822Z" fill="#75519E"/>
<path d="M9.51983 8.8822H9.3457V22.3789H9.51983V8.8822Z" fill="#75519E"/>
<path d="M9.69366 8.8822H9.51953V22.3789H9.69366V8.8822Z" fill="#75519E"/>
<path d="M9.86797 8.8822H9.69385V22.3789H9.86797V8.8822Z" fill="#75519E"/>
<path d="M10.0423 8.8822H9.86816V22.3789H10.0423V8.8822Z" fill="#75519E"/>
<path d="M10.2161 8.8822H10.042V22.3789H10.2161V8.8822Z" fill="#75519E"/>
<path d="M10.3904 8.8822H10.2163V22.3789H10.3904V8.8822Z" fill="#75519E"/>
<path d="M10.5643 8.8822H10.3901V22.3789H10.5643V8.8822Z" fill="#75519E"/>
<path d="M10.7386 8.8822H10.5645V22.3789H10.7386V8.8822Z" fill="#75519E"/>
<path d="M10.9129 8.8822H10.7388V22.3789H10.9129V8.8822Z" fill="#75519E"/>
<path d="M11.0867 8.8822H10.9126V22.3789H11.0867V8.8822Z" fill="#75519E"/>
<path d="M11.261 8.8822H11.0869V22.3789H11.261V8.8822Z" fill="#75519E"/>
<path d="M11.431 8.8822H11.2568V22.3789H11.431V8.8822Z" fill="#75519E"/>
<path d="M11.6053 8.8822H11.4312V22.3789H11.6053V8.8822Z" fill="#75519E"/>
<path d="M11.7791 8.8822H11.605V22.3789H11.7791V8.8822Z" fill="#75519E"/>
<path d="M11.9534 8.8822H11.7793V22.3789H11.9534V8.8822Z" fill="#75519E"/>
<path d="M12.1277 8.8822H11.9536V22.3789H12.1277V8.8822Z" fill="#75519E"/>
<path d="M12.3016 8.8822H12.1274V22.3789H12.3016V8.8822Z" fill="#75519E"/>
<path d="M12.4759 8.8822H12.3018V22.3789H12.4759V8.8822Z" fill="#75519E"/>
<path d="M12.6502 8.8822H12.4761V22.3789H12.6502V8.8822Z" fill="#75519E"/>
<path d="M12.824 8.8822H12.6499V22.3789H12.824V8.8822Z" fill="#75519E"/>
<path d="M12.9983 8.8822H12.8242V22.3789H12.9983V8.8822Z" fill="#75519E"/>
<path d="M13.1722 8.8822H12.998V22.3789H13.1722V8.8822Z" fill="#75519E"/>
<path d="M13.3465 8.8822H13.1724V22.3789H13.3465V8.8822Z" fill="#75519E"/>
<path d="M13.5203 8.8822H13.3462V22.3789H13.5203V8.8822Z" fill="#75519E"/>
<path d="M13.6946 8.8822H13.5205V22.3789H13.6946V8.8822Z" fill="#75519E"/>
<path d="M13.8689 8.8822H13.6948V22.3789H13.8689V8.8822Z" fill="#75519E"/>
<path d="M14.0428 8.8822H13.8687V22.3789H14.0428V8.8822Z" fill="#75519E"/>
<path d="M14.2171 8.8822H14.043V22.3789H14.2171V8.8822Z" fill="#75519E"/>
<path d="M14.3909 8.8822H14.2168V22.3789H14.3909V8.8822Z" fill="#75519E"/>
<path d="M14.5652 8.8822H14.3911V22.3789H14.5652V8.8822Z" fill="#75519E"/>
<path d="M14.7396 8.8822H14.5654V22.3789H14.7396V8.8822Z" fill="#75519E"/>
<path d="M14.9134 8.8822H14.7393V22.3789H14.9134V8.8822Z" fill="#75519E"/>
<path d="M15.0877 8.8822H14.9136V22.3789H15.0877V8.8822Z" fill="#75519E"/>
<path d="M15.2576 8.8822H15.0835V22.3789H15.2576V8.8822Z" fill="#75519E"/>
<path d="M15.4319 8.8822H15.2578V22.3789H15.4319V8.8822Z" fill="#75519E"/>
<path d="M15.6058 8.8822H15.4316V22.3789H15.6058V8.8822Z" fill="#75519E"/>
<path d="M15.7801 8.8822H15.606V22.3789H15.7801V8.8822Z" fill="#75519E"/>
<path d="M15.9544 8.8822H15.7803V22.3789H15.9544V8.8822Z" fill="#75519E"/>
<path d="M16.1282 8.8822H15.9541V22.3789H16.1282V8.8822Z" fill="#75519E"/>
<path d="M16.3025 8.8822H16.1284V22.3789H16.3025V8.8822Z" fill="#75519E"/>
<path d="M16.4769 8.8822H16.3027V22.3789H16.4769V8.8822Z" fill="#75519E"/>
<path d="M16.6507 8.8822H16.4766V22.3789H16.6507V8.8822Z" fill="#75519E"/>
<path d="M16.825 8.8822H16.6509V22.3789H16.825V8.8822Z" fill="#75519E"/>
<path d="M16.9988 8.8822H16.8247V22.3789H16.9988V8.8822Z" fill="#75519E"/>
<path d="M17.1731 8.8822H16.999V22.3789H17.1731V8.8822Z" fill="#75519E"/>
<path d="M17.3475 8.8822H17.1733V22.3789H17.3475V8.8822Z" fill="#75519E"/>
<path d="M17.5213 8.8822H17.3472V22.3789H17.5213V8.8822Z" fill="#75519E"/>
</g>
<defs>
<linearGradient id="paint0_linear_55_2049" x1="11.7225" y1="5.24992" x2="15.4399" y2="5.24992" gradientUnits="userSpaceOnUse">
<stop stop-color="#FEC839"/>
<stop offset="0.13" stop-color="#FBBC39"/>
<stop offset="0.45" stop-color="#F5A439"/>
<stop offset="0.75" stop-color="#F29539"/>
<stop offset="1" stop-color="#F19139"/>
</linearGradient>
<linearGradient id="paint1_linear_55_2049" x1="2" y1="18.8236" x2="5.3772" y2="18.8236" gradientUnits="userSpaceOnUse">
<stop stop-color="#41D5E7"/>
<stop offset="0.18" stop-color="#2ECDE4"/>
<stop offset="0.49" stop-color="#16C3E0"/>
<stop offset="0.77" stop-color="#07BDDD"/>
<stop offset="1" stop-color="#02BBDD"/>
</linearGradient>
<linearGradient id="paint2_linear_55_2049" x1="18.631" y1="2.80413" x2="22.0082" y2="2.80413" gradientUnits="userSpaceOnUse">
<stop stop-color="#41D5E7"/>
<stop offset="0.18" stop-color="#2ECDE4"/>
<stop offset="0.49" stop-color="#16C3E0"/>
<stop offset="0.77" stop-color="#07BDDD"/>
<stop offset="1" stop-color="#02BBDD"/>
</linearGradient>
<linearGradient id="paint3_linear_55_2049" x1="5.4503" y1="10.3318" x2="18.6068" y2="10.3318" gradientUnits="userSpaceOnUse">
<stop stop-color="#FEC839"/>
<stop offset="0.3" stop-color="#FBBB39"/>
<stop offset="0.85" stop-color="#F39B39"/>
<stop offset="1" stop-color="#F19139"/>
</linearGradient>
</defs>
</svg>
