<svg width="24" height="24" viewBox="0 0 24 24" fill="none" xmlns="http://www.w3.org/2000/svg">
<path d="M15.3398 4.35657H12.1688C12.1142 4.35657 12.0732 4.30653 12.0732 4.24283V2.38205C12.0732 2.31836 12.1142 2.26831 12.1688 2.26831H15.3353C15.4172 2.26831 15.4627 2.3866 15.4081 2.45939L14.8257 3.21917C14.7939 3.26467 14.7939 3.32836 14.8257 3.37386L15.4126 4.16094C15.4672 4.23373 15.4263 4.35202 15.3398 4.35202V4.35657Z" fill="#75519E"/>
<path d="M12.0135 2C11.8497 2 11.7178 2.13194 11.7178 2.29572V6.59053C11.7178 6.75432 11.8497 6.88626 12.0135 6.88626C12.1773 6.88626 12.3092 6.75432 12.3092 6.59053V2.29572C12.3092 2.13194 12.1773 2 12.0135 2Z" fill="#75519E"/>
<path d="M5.35305 15.9764V15.2895C5.35305 15.2258 5.36669 14.5206 5.37579 14.4614H2.48681C2.21838 14.4614 2 14.6798 2 14.9482V21.0765C2 21.345 2.21838 21.5633 2.48681 21.5633H5.35305V15.9764Z" fill="#75519E"/>
<path d="M21.513 14.4614H18.624C18.6331 14.5342 18.6468 15.1257 18.6468 15.1985V15.5442V21.5679H21.513C21.7814 21.5679 21.9998 21.3495 21.9998 21.0811V14.9528C21.9998 14.6844 21.7814 14.466 21.513 14.466V14.4614Z" fill="#75519E"/>
<path d="M5.96304 12.9508C5.8402 12.9508 5.71736 12.9053 5.61727 12.8189C5.40799 12.6278 5.38979 12.3002 5.58088 12.0909L10.3397 6.85435C10.7765 6.3721 11.3952 6.09912 12.0367 6.09912C12.6782 6.09912 13.297 6.37665 13.7337 6.85435L18.4699 12.0682C18.6609 12.2775 18.6473 12.605 18.4335 12.7961C18.2242 12.9872 17.8966 12.9735 17.7055 12.7597L12.9694 7.54589C12.4871 7.01359 11.5863 7.01359 11.1041 7.54589L6.34521 12.7825C6.24512 12.8962 6.10408 12.9508 5.96304 12.9508Z" fill="url(#paint0_linear_264_2689)"/>
<mask id="mask0_264_2689" style="mask-type:luminance" maskUnits="userSpaceOnUse" x="6" y="8" width="12" height="14">
<path d="M17.5143 14.0928C17.5143 13.9199 17.4461 13.7516 17.3278 13.6151L12.5917 8.40583C12.2869 8.07371 11.791 8.07371 11.4861 8.40583L6.72726 13.6424C6.62262 13.7607 6.56348 13.9063 6.56348 14.061V15.3894V21.1538C6.56348 21.3812 6.72726 21.5632 6.92744 21.5632H10.3624V16.7452C10.3624 16.4768 10.5808 16.2584 10.8537 16.2584H13.2286C13.497 16.2584 13.7154 16.4768 13.7154 16.7452V21.5632H17.1595C17.3551 21.5632 17.5189 21.3812 17.5189 21.1629V14.0928H17.5143Z" fill="white"/>
</mask>
<g mask="url(#mask0_264_2689)">
<path d="M6.73245 8.07373H6.55957V21.5678H6.73245V8.07373Z" fill="#41D5E7"/>
<path d="M6.91019 8.07373H6.7373V21.5678H6.91019V8.07373Z" fill="#3FD4E7"/>
<path d="M7.08304 8.07373H6.91016V21.5678H7.08304V8.07373Z" fill="#3ED4E6"/>
<path d="M7.25589 8.07373H7.08301V21.5678H7.25589V8.07373Z" fill="#3CD3E6"/>
<path d="M7.42874 8.07373H7.25586V21.5678H7.42874V8.07373Z" fill="#3AD2E6"/>
<path d="M7.6016 8.07373H7.42871V21.5678H7.6016V8.07373Z" fill="#39D2E6"/>
<path d="M7.77835 8.07373H7.60547V21.5678H7.77835V8.07373Z" fill="#37D1E5"/>
<path d="M7.9512 8.07373H7.77832V21.5678H7.9512V8.07373Z" fill="#35D0E5"/>
<path d="M8.12406 8.07373H7.95117V21.5678H8.12406V8.07373Z" fill="#34D0E5"/>
<path d="M8.29788 8.07373H8.125V21.5678H8.29788V8.07373Z" fill="#32CFE5"/>
<path d="M8.47464 8.07373H8.30176V21.5678H8.47464V8.07373Z" fill="#31CEE4"/>
<path d="M8.64749 8.07373H8.47461V21.5678H8.64749V8.07373Z" fill="#2FCEE4"/>
<path d="M8.82035 8.07373H8.64746V21.5678H8.82035V8.07373Z" fill="#2ECDE4"/>
<path d="M8.9932 8.07373H8.82031V21.5678H8.9932V8.07373Z" fill="#2CCCE4"/>
<path d="M9.16605 8.07373H8.99316V21.5678H9.16605V8.07373Z" fill="#2BCCE3"/>
<path d="M9.34378 8.07373H9.1709V21.5678H9.34378V8.07373Z" fill="#29CBE3"/>
<path d="M9.51663 8.07373H9.34375V21.5678H9.51663V8.07373Z" fill="#28CBE3"/>
<path d="M9.68949 8.07373H9.5166V21.5678H9.68949V8.07373Z" fill="#27CAE3"/>
<path d="M9.86234 8.07373H9.68945V21.5678H9.86234V8.07373Z" fill="#25CAE3"/>
<path d="M10.0401 8.07373H9.86719V21.5678H10.0401V8.07373Z" fill="#24C9E2"/>
<path d="M10.2129 8.07373H10.04V21.5678H10.2129V8.07373Z" fill="#22C8E2"/>
<path d="M10.3858 8.07373H10.2129V21.5678H10.3858V8.07373Z" fill="#21C8E2"/>
<path d="M10.5586 8.07373H10.3857V21.5678H10.5586V8.07373Z" fill="#20C7E2"/>
<path d="M10.7315 8.07373H10.5586V21.5678H10.7315V8.07373Z" fill="#1FC7E2"/>
<path d="M10.9092 8.07373H10.7363V21.5678H10.9092V8.07373Z" fill="#1DC6E1"/>
<path d="M11.0821 8.07373H10.9092V21.5678H11.0821V8.07373Z" fill="#1CC6E1"/>
<path d="M11.2549 8.07373H11.082V21.5678H11.2549V8.07373Z" fill="#1BC5E1"/>
<path d="M11.4278 8.07373H11.2549V21.5678H11.4278V8.07373Z" fill="#1AC5E1"/>
<path d="M11.6055 8.07373H11.4326V21.5678H11.6055V8.07373Z" fill="#19C4E1"/>
<path d="M11.7784 8.07373H11.6055V21.5678H11.7784V8.07373Z" fill="#18C4E0"/>
<path d="M11.9502 8.07373H11.7773V21.5678H11.9502V8.07373Z" fill="#16C3E0"/>
<path d="M12.1231 8.07373H11.9502V21.5678H12.1231V8.07373Z" fill="#15C3E0"/>
<path d="M12.2969 8.07373H12.124V21.5678H12.2969V8.07373Z" fill="#14C3E0"/>
<path d="M12.4737 8.07373H12.3008V21.5678H12.4737V8.07373Z" fill="#13C2E0"/>
<path d="M12.6465 8.07373H12.4736V21.5678H12.6465V8.07373Z" fill="#12C2E0"/>
<path d="M12.8194 8.07373H12.6465V21.5678H12.8194V8.07373Z" fill="#11C1DF"/>
<path d="M12.9922 8.07373H12.8193V21.5678H12.9922V8.07373Z" fill="#10C1DF"/>
<path d="M13.17 8.07373H12.9971V21.5678H13.17V8.07373Z" fill="#0FC1DF"/>
<path d="M13.3428 8.07373H13.1699V21.5678H13.3428V8.07373Z" fill="#0FC0DF"/>
<path d="M13.5157 8.07373H13.3428V21.5678H13.5157V8.07373Z" fill="#0EC0DF"/>
<path d="M13.6885 8.07373H13.5156V21.5678H13.6885V8.07373Z" fill="#0DBFDF"/>
<path d="M13.8614 8.07373H13.6885V21.5678H13.8614V8.07373Z" fill="#0CBFDF"/>
<path d="M14.0391 8.07373H13.8662V21.5678H14.0391V8.07373Z" fill="#0BBFDE"/>
<path d="M14.2119 8.07373H14.0391V21.5678H14.2119V8.07373Z" fill="#0ABEDE"/>
<path d="M14.3848 8.07373H14.2119V21.5678H14.3848V8.07373Z" fill="#0ABEDE"/>
<path d="M14.5577 8.07373H14.3848V21.5678H14.5577V8.07373Z" fill="#09BEDE"/>
<path d="M14.7354 8.07373H14.5625V21.5678H14.7354V8.07373Z" fill="#08BEDE"/>
<path d="M14.9082 8.07373H14.7354V21.5678H14.9082V8.07373Z" fill="#08BDDE"/>
<path d="M15.0811 8.07373H14.9082V21.5678H15.0811V8.07373Z" fill="#07BDDE"/>
<path d="M15.2539 8.07373H15.0811V21.5678H15.2539V8.07373Z" fill="#06BDDE"/>
<path d="M15.4268 8.07373H15.2539V21.5678H15.4268V8.07373Z" fill="#06BDDE"/>
<path d="M15.6045 8.07373H15.4316V21.5678H15.6045V8.07373Z" fill="#05BCDE"/>
<path d="M15.7774 8.07373H15.6045V21.5678H15.7774V8.07373Z" fill="#05BCDD"/>
<path d="M15.9502 8.07373H15.7773V21.5678H15.9502V8.07373Z" fill="#04BCDD"/>
<path d="M16.1231 8.07373H15.9502V21.5678H16.1231V8.07373Z" fill="#04BCDD"/>
<path d="M16.3008 8.07373H16.1279V21.5678H16.3008V8.07373Z" fill="#04BCDD"/>
<path d="M16.4737 8.07373H16.3008V21.5678H16.4737V8.07373Z" fill="#03BBDD"/>
<path d="M16.6455 8.07373H16.4727V21.5678H16.6455V8.07373Z" fill="#03BBDD"/>
<path d="M16.8184 8.07373H16.6455V21.5678H16.8184V8.07373Z" fill="#03BBDD"/>
<path d="M16.9912 8.07373H16.8184V21.5678H16.9912V8.07373Z" fill="#02BBDD"/>
<path d="M17.169 8.07373H16.9961V21.5678H17.169V8.07373Z" fill="#02BBDD"/>
<path d="M17.3418 8.07373H17.1689V21.5678H17.3418V8.07373Z" fill="#02BBDD"/>
<path d="M17.5147 8.07373H17.3418V21.5678H17.5147V8.07373Z" fill="#02BBDD"/>
</g>
<defs>
<linearGradient id="paint0_linear_264_2689" x1="5.44894" y1="9.52496" x2="18.6018" y2="9.52496" gradientUnits="userSpaceOnUse">
<stop stop-color="#FFCC39"/>
<stop offset="0.61" stop-color="#F7AB39"/>
<stop offset="1" stop-color="#F19139"/>
</linearGradient>
</defs>
</svg>
