<svg width="61" height="60" viewBox="0 0 61 60" fill="none" xmlns="http://www.w3.org/2000/svg">
<rect x="0.666656" width="60" height="60" rx="11" fill="#E1D8FF"/>
<path d="M40.8072 38.541C42.5273 38.541 43.9217 37.1465 43.9217 35.4264C43.9217 33.7062 42.5273 32.3118 40.8072 32.3118C39.087 32.3118 37.6926 33.7062 37.6926 35.4264C37.6926 37.1465 39.087 38.541 40.8072 38.541Z" fill="url(#paint0_linear_131_5319)"/>
<path d="M45.7584 44.9999C46.4088 44.9999 46.8833 44.3647 46.6767 43.7525C45.8502 41.2961 43.5391 39.5283 40.7995 39.5283C38.0599 39.5283 35.7488 41.2961 34.9223 43.7525C34.7157 44.3647 35.1978 44.9999 35.8407 44.9999H45.7507H45.7584Z" fill="url(#paint1_linear_131_5319)"/>
<path d="M35.8942 37.9366C35.3585 36.8959 35.1443 35.6562 35.3891 34.3629C35.81 32.159 37.5854 30.3989 39.797 30.0086C41.1056 29.7714 42.353 30.0086 43.3937 30.5672C43.6616 30.7126 43.983 30.5213 43.983 30.2229V23.6417C43.983 21.101 41.9244 19.0425 39.3838 19.0425H38.5343V16.739C38.5343 14.4203 34.9376 14.4203 34.9376 16.739V19.0425H26.0454V16.739C26.0454 14.4203 22.4487 14.4203 22.4487 16.739V19.0425H21.5992C19.0586 19.0425 17 21.101 17 23.6417V37.3857C17 39.9263 19.0586 41.9848 21.5992 41.9848H32.596C32.8944 41.9848 33.1622 41.8165 33.3076 41.5486C33.9122 40.4696 34.731 39.5437 35.7029 38.8243C35.9784 38.6254 36.0549 38.2504 35.9019 37.9519L35.8942 37.9366ZM35.8406 24.2692C35.8406 23.9631 36.0855 23.7182 36.3916 23.7182H39.8353C40.1414 23.7182 40.3863 23.9631 40.3863 24.2692V27.7128C40.3863 28.0189 40.1414 28.2638 39.8353 28.2638H36.3916C36.0855 28.2638 35.8406 28.0189 35.8406 27.7128V24.2692ZM25.1424 35.9317C25.1424 36.2378 24.8975 36.4827 24.5914 36.4827H21.1477C20.8416 36.4827 20.5967 36.2378 20.5967 35.9317V32.488C20.5967 32.1819 20.8416 31.937 21.1477 31.937H24.5914C24.8975 31.937 25.1424 32.1819 25.1424 32.488V35.9317ZM25.1424 27.7128C25.1424 28.0189 24.8975 28.2638 24.5914 28.2638H21.1477C20.8416 28.2638 20.5967 28.0189 20.5967 27.7128V24.2692C20.5967 23.9631 20.8416 23.7182 21.1477 23.7182H24.5914C24.8975 23.7182 25.1424 23.9631 25.1424 24.2692V27.7128ZM32.7643 35.9317C32.7643 36.2378 32.5194 36.4827 32.2133 36.4827H28.7697C28.4636 36.4827 28.2187 36.2378 28.2187 35.9317V32.488C28.2187 32.1819 28.4636 31.937 28.7697 31.937H32.2133C32.5194 31.937 32.7643 32.1819 32.7643 32.488V35.9317ZM32.2133 28.2638H28.7697C28.4636 28.2638 28.2187 28.0189 28.2187 27.7128V24.2692C28.2187 23.9631 28.4636 23.7182 28.7697 23.7182H32.2133C32.5194 23.7182 32.7643 23.9631 32.7643 24.2692V27.7128C32.7643 28.0189 32.5194 28.2638 32.2133 28.2638Z" fill="#75519E"/>
<defs>
<linearGradient id="paint0_linear_131_5319" x1="37.6849" y1="35.4264" x2="43.9217" y2="35.4264" gradientUnits="userSpaceOnUse">
<stop stop-color="#FEC839"/>
<stop offset="0.08" stop-color="#F9B639"/>
<stop offset="0.18" stop-color="#F5A539"/>
<stop offset="0.31" stop-color="#F39939"/>
<stop offset="0.49" stop-color="#F19239"/>
<stop offset="1" stop-color="#F19139"/>
</linearGradient>
<linearGradient id="paint1_linear_131_5319" x1="34.8841" y1="42.2603" x2="46.7302" y2="42.2603" gradientUnits="userSpaceOnUse">
<stop stop-color="#FEC839"/>
<stop offset="0.08" stop-color="#F9B639"/>
<stop offset="0.18" stop-color="#F5A539"/>
<stop offset="0.31" stop-color="#F39939"/>
<stop offset="0.49" stop-color="#F19239"/>
<stop offset="1" stop-color="#F19139"/>
</linearGradient>
</defs>
</svg>
