<svg width="24" height="24" viewBox="0 0 24 24" fill="none" xmlns="http://www.w3.org/2000/svg">
<path d="M9.52461 16.5711C10.6302 16.5711 11.5264 15.6748 11.5264 14.5693C11.5264 13.4637 10.6302 12.5675 9.52461 12.5675C8.41906 12.5675 7.52283 13.4637 7.52283 14.5693C7.52283 15.6748 8.41906 16.5711 9.52461 16.5711Z" fill="url(#paint0_linear_152_7023)"/>
<path d="M16.9195 8.42537C17.6623 8.42537 18.2645 7.82322 18.2645 7.08042C18.2645 6.33763 17.6623 5.73547 16.9195 5.73547C16.1767 5.73547 15.5746 6.33763 15.5746 7.08042C15.5746 7.82322 16.1767 8.42537 16.9195 8.42537Z" fill="url(#paint1_linear_152_7023)"/>
<path d="M16.227 13.8231C15.588 13.8231 15.0161 13.5192 14.6542 13.05C14.5693 12.9428 14.4352 12.8847 14.2967 12.9026C13.7069 12.9741 13.0903 12.7864 12.639 12.3351L11.714 11.4102C11.3834 11.0795 11.1421 10.6506 11.0929 10.1814C11.0751 10.0161 11.0751 9.85076 11.0929 9.6899C11.1108 9.56032 11.0572 9.43521 10.9544 9.35031C10.4808 8.98391 10.1769 8.41197 10.1769 7.76854V7.32618C10.1769 7.15639 10.0384 7.02234 9.8731 7.02234H8.50581C8.22877 7.02234 8.00536 7.24575 8.00536 7.52279V8.89901C7.50938 9.03306 7.04468 9.2252 6.61126 9.47542L5.63718 8.50134C5.44057 8.30473 5.12332 8.30473 4.92672 8.50134L3.48347 9.94459C3.28686 10.1412 3.28686 10.4584 3.48347 10.655L4.45755 11.6291C4.20733 12.0626 4.01519 12.5317 3.88114 13.0232H2.50045C2.22341 13.0232 2 13.2466 2 13.5237V15.5657C2 15.8427 2.22341 16.0661 2.50045 16.0661H3.87668C4.01072 16.5621 4.20286 17.0268 4.45308 17.4602L3.479 18.4343C3.28239 18.6309 3.28239 18.9482 3.479 19.1448L4.92225 20.588C5.11886 20.7846 5.4361 20.7846 5.63271 20.588L6.60679 19.6139C7.04021 19.8642 7.50938 20.0563 8.00089 20.1903V21.5666C8.00089 21.8436 8.22431 22.067 8.50134 22.067H10.5433C10.8204 22.067 11.0438 21.8436 11.0438 21.5666V20.1903C11.5398 20.0563 12.0045 19.8642 12.4379 19.6139L13.412 20.588C13.6086 20.7846 13.9258 20.7846 14.1224 20.588L15.5657 19.1448C15.7623 18.9482 15.7623 18.6309 15.5657 18.4343L14.5916 17.4602C14.8418 17.0268 15.034 16.5576 15.168 16.0661H16.5442C16.8213 16.0661 17.0447 15.8427 17.0447 15.5657V14.1582C17.0447 13.966 16.8883 13.8096 16.6962 13.8096H16.2181L16.227 13.8231ZM10.1769 17.3306C8.10366 17.7909 6.29401 15.9812 6.75424 13.9079C6.98659 12.8624 7.8311 12.0179 8.87667 11.7855C10.95 11.3253 12.7596 13.1349 12.2994 15.2082C12.067 16.2538 11.2225 17.0983 10.1769 17.3306Z" fill="url(#paint2_linear_152_7023)"/>
<path d="M15.8874 2.33959V3.26899C15.5523 3.35836 15.2395 3.48794 14.9446 3.65773L14.2878 3.00089C14.1538 2.86685 13.9393 2.86685 13.8097 3.00089L12.8356 3.97498C12.7016 4.10903 12.7016 4.3235 12.8356 4.45308L13.4924 5.10992C13.3227 5.40036 13.1931 5.7176 13.1037 6.05272H12.1743C11.9866 6.05272 11.8347 6.20465 11.8347 6.39231V7.77301C11.8347 7.96068 11.9866 8.1126 12.1743 8.1126H13.1037C13.1931 8.44772 13.3227 8.7605 13.4924 9.05541L12.8356 9.71224C12.7016 9.84629 12.7016 10.0608 12.8356 10.1903L13.8097 11.1644C13.9437 11.2985 14.1582 11.2985 14.2878 11.1644L14.9446 10.5076C15.2351 10.6774 15.5523 10.807 15.8874 10.8963V11.8257C15.8874 12.0134 16.0394 12.1653 16.227 12.1653H17.6077C17.7954 12.1653 17.9473 12.0134 17.9473 11.8257V10.8963C18.2824 10.807 18.5952 10.6774 18.8901 10.5076L19.547 11.1644C19.681 11.2985 19.8955 11.2985 20.0251 11.1644L20.9991 10.1903C21.1332 10.0563 21.1332 9.84182 20.9991 9.71224L20.3423 9.05541C20.5121 8.76497 20.6417 8.44772 20.7311 8.1126H21.6605C21.8481 8.1126 22 7.96068 22 7.77301V6.39231C22 6.20465 21.8481 6.05272 21.6605 6.05272H20.7311C20.6417 5.7176 20.5121 5.40483 20.3423 5.10992L20.9991 4.45308C21.1332 4.31903 21.1332 4.10456 20.9991 3.97498L20.0251 3.00089C19.891 2.86685 19.6765 2.86685 19.547 3.00089L18.8901 3.65773C18.5997 3.48794 18.2824 3.35836 17.9473 3.26899V2.33959C17.9473 2.15192 17.7954 2 17.6077 2H16.227C16.0394 2 15.8874 2.15192 15.8874 2.33959ZM18.8365 7.08043C18.8365 8.13941 17.9786 9.00179 16.9151 9.00179C15.8517 9.00179 14.9938 8.14388 14.9938 7.08043C14.9938 6.01698 15.8517 5.15907 16.9151 5.15907C17.9786 5.15907 18.8365 6.01698 18.8365 7.08043Z" fill="#75519E"/>
<defs>
<linearGradient id="paint0_linear_152_7023" x1="7.5273" y1="14.5693" x2="11.5264" y2="14.5693" gradientUnits="userSpaceOnUse">
<stop stop-color="#FEC839"/>
<stop offset="0.16" stop-color="#FAB839"/>
<stop offset="0.46" stop-color="#F5A239"/>
<stop offset="0.74" stop-color="#F29539"/>
<stop offset="1" stop-color="#F19139"/>
</linearGradient>
<linearGradient id="paint1_linear_152_7023" x1="15.5746" y1="7.08042" x2="18.2645" y2="7.08042" gradientUnits="userSpaceOnUse">
<stop stop-color="#FEC839"/>
<stop offset="0.16" stop-color="#FAB839"/>
<stop offset="0.46" stop-color="#F5A239"/>
<stop offset="0.74" stop-color="#F29539"/>
<stop offset="1" stop-color="#F19139"/>
</linearGradient>
<linearGradient id="paint2_linear_152_7023" x1="9.52457" y1="22.0849" x2="9.52457" y2="7.02681" gradientUnits="userSpaceOnUse">
<stop stop-color="#41D5E7"/>
<stop offset="0.18" stop-color="#2ECDE4"/>
<stop offset="0.49" stop-color="#16C3E0"/>
<stop offset="0.77" stop-color="#07BDDD"/>
<stop offset="1" stop-color="#02BBDD"/>
</linearGradient>
</defs>
</svg>
