<svg width="24" height="25" viewBox="0 0 24 25" fill="none" xmlns="http://www.w3.org/2000/svg">
<path d="M9.49876 17.3166C10.5989 17.3166 11.4907 16.4248 11.4907 15.3247C11.4907 14.2246 10.5989 13.3328 9.49876 13.3328C8.39865 13.3328 7.50684 14.2246 7.50684 15.3247C7.50684 16.4248 8.39865 17.3166 9.49876 17.3166Z" fill="url(#paint0_linear_55_2172)"/>
<path d="M16.8665 9.20668C17.6077 9.20668 18.2085 8.60583 18.2085 7.86463C18.2085 7.12344 17.6077 6.52258 16.8665 6.52258C16.1253 6.52258 15.5244 7.12344 15.5244 7.86463C15.5244 8.60583 16.1253 9.20668 16.8665 9.20668Z" fill="url(#paint1_linear_55_2172)"/>
<path d="M16.1742 14.5787C15.5359 14.5787 14.9706 14.2788 14.6053 13.8096C14.5207 13.702 14.3861 13.6481 14.2515 13.6635C13.6631 13.7366 13.0517 13.5481 12.6018 13.0982L11.6789 12.1753C11.3482 11.8446 11.1098 11.4178 11.0598 10.9525C11.0406 10.7871 11.0444 10.6218 11.0598 10.4603C11.0752 10.3295 11.0252 10.2026 10.9214 10.1257C10.4484 9.76042 10.1446 9.19129 10.1446 8.55296V8.11458C10.1446 7.94538 10.01 7.81079 9.8408 7.81079H8.47952C8.20265 7.81079 7.97962 8.03382 7.97962 8.31069V9.68351C7.4874 9.81425 7.02211 10.0104 6.59142 10.2565L5.62238 9.28743C5.42626 9.09131 5.11094 9.09131 4.91482 9.28743L3.47664 10.7256C3.28052 10.9217 3.28052 11.2371 3.47664 11.4332L4.44568 12.4022C4.19573 12.8329 4.00346 13.2982 3.87272 13.7904H2.4999C2.22303 13.7904 2 14.0134 2 14.2903V16.3245C2 16.6014 2.22303 16.8244 2.4999 16.8244H3.87272C4.00346 17.3167 4.19958 17.7819 4.44568 18.2126L3.47664 19.1817C3.28052 19.3778 3.28052 19.6931 3.47664 19.8892L4.91482 21.3274C5.11094 21.5235 5.42626 21.5235 5.62238 21.3274L6.59142 20.3584C7.02211 20.6083 7.4874 20.8006 7.97962 20.9313V22.3042C7.97962 22.581 8.20265 22.8041 8.47952 22.8041H10.5137C10.7906 22.8041 11.0136 22.581 11.0136 22.3042V20.9313C11.5059 20.8006 11.9712 20.6045 12.4018 20.3584L13.3709 21.3274C13.567 21.5235 13.8823 21.5235 14.0784 21.3274L15.5166 19.8892C15.7127 19.6931 15.7127 19.3778 15.5166 19.1817L14.5476 18.2126C14.7975 17.7819 14.9898 17.3128 15.1205 16.8206H16.4934C16.7702 16.8206 16.9933 16.5976 16.9933 16.3207V14.921C16.9933 14.7287 16.8356 14.5749 16.6472 14.5749H16.1703L16.1742 14.5787ZM10.1484 18.0704C8.08344 18.528 6.27994 16.7283 6.73755 14.6595C6.96827 13.6174 7.81042 12.7791 8.84868 12.5483C10.9137 12.0907 12.7172 13.8904 12.2596 15.9592C12.0288 17.0013 11.1867 17.8396 10.1484 18.0704Z" fill="#75519E"/>
<path d="M15.836 3.14247V4.06922C15.5053 4.15766 15.1899 4.28841 14.8977 4.4576L14.244 3.80388C14.1132 3.67314 13.8979 3.67314 13.7671 3.80388L12.7942 4.77677C12.6635 4.90752 12.6635 5.12286 12.7942 5.25361L13.448 5.90733C13.2788 6.19958 13.148 6.5149 13.0596 6.84561H12.1328C11.9483 6.84561 11.7944 6.99558 11.7944 7.184V8.55682C11.7944 8.74139 11.9444 8.89521 12.1328 8.89521H13.0596C13.148 9.22592 13.2788 9.54124 13.448 9.83349L12.7942 10.4872C12.6635 10.618 12.6635 10.8333 12.7942 10.964L13.7671 11.9369C13.8979 12.0677 14.1132 12.0677 14.244 11.9369L14.8977 11.2832C15.1899 11.4524 15.5053 11.5832 15.836 11.6716V12.5983C15.836 12.7829 15.9859 12.9367 16.1744 12.9367H17.5472C17.7318 12.9367 17.8856 12.7868 17.8856 12.5983V11.6716C18.2163 11.5832 18.5316 11.4524 18.8238 11.2832L19.4776 11.9369C19.6083 12.0677 19.8237 12.0677 19.9544 11.9369L20.9273 10.964C21.058 10.8333 21.058 10.618 20.9273 10.4872L20.2736 9.83349C20.4428 9.54124 20.5735 9.22592 20.662 8.89521H21.5887C21.7733 8.89521 21.9271 8.74524 21.9271 8.55682V7.184C21.9271 6.99942 21.7771 6.84561 21.5887 6.84561H20.662C20.5735 6.5149 20.4428 6.19958 20.2736 5.90733L20.9273 5.25361C21.058 5.12286 21.058 4.90752 20.9273 4.77677L19.9544 3.80388C19.8237 3.67314 19.6083 3.67314 19.4776 3.80388L18.8238 4.4576C18.5316 4.28841 18.2163 4.15766 17.8856 4.06922V3.14247C17.8856 2.95789 17.7356 2.80408 17.5472 2.80408H16.1744C15.9898 2.80408 15.836 2.95405 15.836 3.14247ZM18.7739 7.86849C18.7739 8.92597 17.9163 9.77966 16.8627 9.77966C15.809 9.77966 14.9515 8.92213 14.9515 7.86849C14.9515 6.81484 15.809 5.95732 16.8627 5.95732C17.9163 5.95732 18.7739 6.81484 18.7739 7.86849Z" fill="url(#paint2_linear_55_2172)"/>
<defs>
<linearGradient id="paint0_linear_55_2172" x1="7.50684" y1="15.3247" x2="11.4945" y2="15.3247" gradientUnits="userSpaceOnUse">
<stop stop-color="#FEC839"/>
<stop offset="0.16" stop-color="#FAB839"/>
<stop offset="0.46" stop-color="#F5A239"/>
<stop offset="0.74" stop-color="#F29539"/>
<stop offset="1" stop-color="#F19139"/>
</linearGradient>
<linearGradient id="paint1_linear_55_2172" x1="15.5244" y1="7.86463" x2="18.2047" y2="7.86463" gradientUnits="userSpaceOnUse">
<stop stop-color="#FEC839"/>
<stop offset="0.16" stop-color="#FAB839"/>
<stop offset="0.46" stop-color="#F5A239"/>
<stop offset="0.74" stop-color="#F29539"/>
<stop offset="1" stop-color="#F19139"/>
</linearGradient>
<linearGradient id="paint2_linear_55_2172" x1="11.7983" y1="7.86464" x2="21.9233" y2="7.86464" gradientUnits="userSpaceOnUse">
<stop stop-color="#41D5E7"/>
<stop offset="0.3" stop-color="#29CBE3"/>
<stop offset="0.75" stop-color="#0CBFDE"/>
<stop offset="1" stop-color="#02BBDD"/>
</linearGradient>
</defs>
</svg>
