<svg width="61" height="60" viewBox="0 0 61 60" fill="none" xmlns="http://www.w3.org/2000/svg">
<rect x="0.333008" width="60" height="60" rx="11" fill="#E1D8FF"/>
<path d="M24.3535 21.0046H36.3913C38.9639 21.0046 38.9696 17.0054 36.3913 17.0054H34.9704C34.9704 16.0027 34.3286 15 33.0395 15H27.6422C26.3531 15 25.7056 16.0027 25.7114 17.0054H24.3535C21.7809 17.0054 21.7752 21.0046 24.3535 21.0046Z" fill="url(#paint0_linear_396_34836)"/>
<path d="M40.3281 19.1539C40.3281 21.3483 38.5462 23.1302 36.3461 23.1302H24.4114C22.217 23.1302 20.4351 21.3483 20.4293 19.1539C19.0829 19.1768 18 20.2711 18 21.6176V42.5305C18 43.8942 19.1058 45 20.4694 45H40.2708C41.6345 45 42.7403 43.8942 42.7403 42.5305V21.6176C42.7403 20.2711 41.6631 19.1825 40.3224 19.1539H40.3281ZM36.7987 31.9308C34.6043 34.1539 32.4156 36.377 30.2212 38.6C29.5852 39.2417 28.4737 39.2475 27.8434 38.6C26.5485 37.2765 25.2479 35.9587 23.953 34.6352C22.4347 33.0882 24.8125 30.7104 26.3308 32.2574C27.2303 33.1741 28.1356 34.0966 29.0352 35.0133C30.8285 33.1913 32.6219 31.375 34.421 29.553C35.945 28.0061 38.3228 30.3896 36.7987 31.9308Z" fill="#75519E"/>
<defs>
<linearGradient id="paint0_linear_396_34836" x1="25.9463" y1="14.5817" x2="34.7985" y2="23.4282" gradientUnits="userSpaceOnUse">
<stop stop-color="#FEC839"/>
<stop offset="0.15" stop-color="#FABA39"/>
<stop offset="0.46" stop-color="#F5A339"/>
<stop offset="0.75" stop-color="#F29539"/>
<stop offset="1" stop-color="#F19139"/>
</linearGradient>
</defs>
</svg>
