<svg width="60" height="60" viewBox="0 0 60 60" fill="none" xmlns="http://www.w3.org/2000/svg">
<g clip-path="url(#clip0_1_18386)">
<path opacity="0.7" d="M30 60C46.5685 60 60 46.5685 60 30C60 13.4315 46.5685 0 30 0C13.4315 0 0 13.4315 0 30C0 46.5685 13.4315 60 30 60Z" fill="#D8CFFF"/>
<path d="M45.8879 28.4503C45.8879 28.4503 45.9187 28.3682 45.9187 28.3168C45.9187 19.4903 38.7445 12.3162 29.918 12.3162C21.0914 12.3162 13.9173 19.4903 13.9173 28.3168C13.9173 28.3887 13.9481 28.4503 13.9584 28.5221C12.1828 29.3227 10.9409 31.0982 10.9409 33.1714V34.4646C10.9409 37.2768 13.2297 39.5656 16.0418 39.5656C18.854 39.5656 21.1428 37.2871 21.1428 34.4646V33.1714C21.1428 31.0367 19.829 29.2098 17.9611 28.4503C17.9611 28.4092 17.9919 28.3682 17.9919 28.3168C17.9919 21.7483 23.3391 16.401 29.9077 16.401C36.4763 16.401 41.8236 21.7483 41.8236 28.3168C41.8236 28.3887 41.8544 28.4503 41.8646 28.5221C40.0891 29.3227 38.8472 31.0982 38.8472 33.1714V34.4646C38.8472 36.5276 40.0788 38.2929 41.8338 39.0934C41.1051 41.0538 39.2269 42.4496 37.0203 42.4496H36.4558C35.8708 41.7825 35.0394 41.3411 34.0849 41.3411C32.3299 41.3411 30.9033 42.7678 30.9033 44.5228C30.9033 46.2778 32.3299 47.7045 34.0849 47.7045C35.06 47.7045 35.9118 47.2323 36.4866 46.5344H37.0203C41.4951 46.5344 45.2413 43.3322 46.0726 39.0934C47.8277 38.2826 49.049 36.5276 49.049 34.4646V33.1714C49.049 31.0367 47.7353 29.2098 45.8776 28.4503H45.8879Z" fill="#75519E"/>
<path d="M37.2253 32.689V28.0602C37.2253 24.0677 33.9923 20.8347 29.9999 20.8347C26.0074 20.8347 22.7744 24.0677 22.7744 28.0602V32.689C22.7744 36.6815 26.0074 39.9144 29.9999 39.9144C33.9923 39.9144 37.2253 36.6815 37.2253 32.689Z" fill="url(#paint0_linear_1_18386)"/>
</g>
<defs>
<linearGradient id="paint0_linear_1_18386" x1="22.7744" y1="30.3797" x2="37.2253" y2="30.3797" gradientUnits="userSpaceOnUse">
<stop stop-color="#41D3E5"/>
<stop offset="0.74" stop-color="#02B9DB"/>
</linearGradient>
<clipPath id="clip0_1_18386">
<rect width="60" height="60" fill="white"/>
</clipPath>
</defs>
</svg>
