<svg width="60" height="60" viewBox="0 0 60 60" fill="none" xmlns="http://www.w3.org/2000/svg">
<g clip-path="url(#clip0_291_118609)">
<path opacity="0.7" d="M30 60C46.5685 60 60 46.5685 60 30C60 13.4315 46.5685 0 30 0C13.4315 0 0 13.4315 0 30C0 46.5685 13.4315 60 30 60Z" fill="#B2F5F7"/>
<path d="M45.8884 28.4503C45.8884 28.4503 45.9192 28.3682 45.9192 28.3168C45.9192 19.4903 38.745 12.3162 29.9185 12.3162C21.0919 12.3162 13.9178 19.4903 13.9178 28.3168C13.9178 28.3887 13.9486 28.4503 13.9589 28.5221C12.1833 29.3227 10.9414 31.0982 10.9414 33.1714V34.4646C10.9414 37.2768 13.2302 39.5656 16.0423 39.5656C18.8545 39.5656 21.1433 37.2871 21.1433 34.4646V33.1714C21.1433 31.0367 19.8295 29.2098 17.9616 28.4503C17.9616 28.4092 17.9924 28.3682 17.9924 28.3168C17.9924 21.7483 23.3396 16.401 29.9082 16.401C36.4768 16.401 41.8241 21.7483 41.8241 28.3168C41.8241 28.3887 41.8549 28.4503 41.8651 28.5221C40.0895 29.3227 38.8477 31.0982 38.8477 33.1714V34.4646C38.8477 36.5276 40.0793 38.2929 41.8343 39.0934C41.1056 41.0538 39.2274 42.4496 37.0208 42.4496H36.4563C35.8713 41.7825 35.0399 41.3411 34.0854 41.3411C32.3304 41.3411 30.9038 42.7678 30.9038 44.5228C30.9038 46.2778 32.3304 47.7045 34.0854 47.7045C35.0605 47.7045 35.9123 47.2323 36.4871 46.5344H37.0208C41.4956 46.5344 45.2418 43.3322 46.0731 39.0934C47.8282 38.2826 49.0495 36.5276 49.0495 34.4646V33.1714C49.0495 31.0367 47.7358 29.2098 45.8781 28.4503H45.8884Z" fill="#75519E"/>
<path d="M37.2263 32.689V28.0602C37.2263 24.0677 33.9933 20.8347 30.0008 20.8347C26.0084 20.8347 22.7754 24.0677 22.7754 28.0602V32.689C22.7754 36.6815 26.0084 39.9144 30.0008 39.9144C33.9933 39.9144 37.2263 36.6815 37.2263 32.689Z" fill="url(#paint0_linear_291_118609)"/>
</g>
<defs>
<linearGradient id="paint0_linear_291_118609" x1="22.7754" y1="30.3797" x2="37.2263" y2="30.3797" gradientUnits="userSpaceOnUse">
<stop stop-color="#41D3E5"/>
<stop offset="0.74" stop-color="#02B9DB"/>
</linearGradient>
<clipPath id="clip0_291_118609">
<rect width="60" height="60" fill="white"/>
</clipPath>
</defs>
</svg>
