<svg width="32" height="32" viewBox="0 0 32 32" fill="none" xmlns="http://www.w3.org/2000/svg">
<g clip-path="url(#clip0_95_3464)">
<path d="M16 32C24.8366 32 32 24.8366 32 16C32 7.16344 24.8366 0 16 0C7.16344 0 0 7.16344 0 16C0 24.8366 7.16344 32 16 32Z" fill="white"/>
<path d="M24.4733 15.1735C24.4733 15.1735 24.4898 15.1297 24.4898 15.1023C24.4898 10.3948 20.6636 6.5686 15.9561 6.5686C11.2486 6.5686 7.42237 10.3948 7.42237 15.1023C7.42237 15.1406 7.43879 15.1735 7.44427 15.2118C6.49729 15.6387 5.83496 16.5857 5.83496 17.6914V18.3811C5.83496 19.881 7.05562 21.1016 8.55545 21.1016C10.0553 21.1016 11.2759 19.8864 11.2759 18.3811V17.6914C11.2759 16.5529 10.5753 15.5785 9.57906 15.1735C9.57906 15.1516 9.59548 15.1297 9.59548 15.1023C9.59548 11.5991 12.4473 8.74719 15.9506 8.74719C19.4538 8.74719 22.3057 11.5991 22.3057 15.1023C22.3057 15.1406 22.3221 15.1735 22.3276 15.2118C21.3806 15.6387 20.7183 16.5857 20.7183 17.6914V18.3811C20.7183 19.4814 21.3752 20.4229 22.3112 20.8498C21.9225 21.8953 20.9208 22.6398 19.744 22.6398H19.4429C19.1309 22.284 18.6875 22.0486 18.1784 22.0486C17.2424 22.0486 16.4816 22.8095 16.4816 23.7455C16.4816 24.6815 17.2424 25.4424 18.1784 25.4424C18.6985 25.4424 19.1528 25.1906 19.4593 24.8183H19.744C22.1305 24.8183 24.1285 23.1105 24.5719 20.8498C25.5079 20.4174 26.1593 19.4814 26.1593 18.3811V17.6914C26.1593 16.5529 25.4586 15.5785 24.4679 15.1735H24.4733Z" fill="#75519E"/>
<path d="M19.8536 17.4341V14.9654C19.8536 12.8361 18.1294 11.1118 16.0001 11.1118C13.8707 11.1118 12.1465 12.8361 12.1465 14.9654V17.4341C12.1465 19.5634 13.8707 21.2877 16.0001 21.2877C18.1294 21.2877 19.8536 19.5634 19.8536 17.4341Z" fill="url(#paint0_linear_95_3464)"/>
</g>
<defs>
<linearGradient id="paint0_linear_95_3464" x1="12.1465" y1="16.2025" x2="19.8536" y2="16.2025" gradientUnits="userSpaceOnUse">
<stop stop-color="#41D3E5"/>
<stop offset="0.74" stop-color="#02B9DB"/>
</linearGradient>
<clipPath id="clip0_95_3464">
<rect width="32" height="32" fill="white"/>
</clipPath>
</defs>
</svg>
